<?xml version="1.0" encoding="UTF-8" standalone="no"?>
<!DOCTYPE svg PUBLIC "-//W3C//DTD SVG 1.1//EN" "http://www.w3.org/Graphics/SVG/1.1/DTD/svg11.dtd">
<!-- Generated by Microsoft Visio, SVG Export braintreesetup.svg Page-1 -->
<svg xmlns="http://www.w3.org/2000/svg" xmlns:xlink="http://www.w3.org/1999/xlink" xmlns:ev="http://www.w3.org/2001/xml-events"
		xmlns:v="http://schemas.microsoft.com/visio/2003/SVGExtensions/" width="7.90666in" height="4.88542in"
		viewBox="0 0 569.279 351.75" xml:space="preserve" color-interpolation-filters="sRGB" class="st18">
	<v:documentProperties v:langID="1033" v:viewMarkup="false">
		<v:userDefs>
			<v:ud v:nameU="msvSubprocessMaster" v:prompt="" v:val="VT4(Rectangle)"/>
			<v:ud v:nameU="msvNoAutoConnect" v:val="VT0(1):26"/>
			<v:ud v:nameU="visTLShowProps" v:prompt="" v:val="VT0(0):26"/>
		</v:userDefs>
	</v:documentProperties>

	<style type="text/css">
	<![CDATA[
		.st1 {visibility:visible}
		.st2 {fill:#5b9bd5;fill-opacity:0.22;filter:url(#filter_2);stroke:#5b9bd5;stroke-opacity:0.22}
		.st3 {fill:#5b9bd5;stroke:#c7c8c8;stroke-width:0.25}
		.st4 {fill:#70ad47;stroke:#70ad47;stroke-width:0.25}
		.st5 {fill:#feffff;font-family:Calibri;font-size:1.16666em}
		.st6 {font-size:1em}
		.st7 {marker-end:url(#mrkr4-41);stroke:#5b9bd5;stroke-linecap:round;stroke-linejoin:round;stroke-width:1}
		.st8 {fill:#5b9bd5;fill-opacity:1;stroke:#5b9bd5;stroke-opacity:1;stroke-width:0.28409090909091}
		.st9 {marker-end:url(#mrkr4-47);stroke:#70ad47;stroke-linecap:round;stroke-linejoin:round;stroke-width:1}
		.st10 {fill:#70ad47;fill-opacity:1;stroke:#70ad47;stroke-opacity:1;stroke-width:0.28409090909091}
		.st11 {fill:none;stroke:none;stroke-width:0.25}
		.st12 {fill:#5b9bd5;font-family:Calibri;font-size:1.00001em}
		.st13 {fill:#70ad47;font-family:Calibri;font-size:1.00001em}
		.st14 {fill:#ffffff;stroke:none;stroke-linecap:butt;stroke-width:7.2}
		.st15 {fill:#4f87bb;font-family:Calibri;font-size:1.16666em}
		.st16 {fill:#ff0000;stroke:none;stroke-linecap:round;stroke-linejoin:round;stroke-width:0.75}
		.st17 {fill:#ffffff;stroke:none;stroke-linecap:round;stroke-linejoin:round;stroke-width:0.75;visibility:hidden}
		.st18 {fill:none;fill-rule:evenodd;font-size:12px;overflow:visible;stroke-linecap:square;stroke-miterlimit:3}
	]]>
	</style>

	<defs id="Markers">
		<g id="lend4">
			<path d="M 2 1 L 0 0 L 2 -1 L 2 1 " style="stroke:none"/>
		</g>
		<marker id="mrkr4-41" class="st8" v:arrowType="4" v:arrowSize="2" v:setback="7.04" refX="-7.04" orient="auto"
				markerUnits="strokeWidth" overflow="visible">
			<use xlink:href="#lend4" transform="scale(-3.52,-3.52) "/>
		</marker>
		<marker id="mrkr4-47" class="st10" v:arrowType="4" v:arrowSize="2" v:setback="7.04" refX="-7.04" orient="auto"
				markerUnits="strokeWidth" overflow="visible">
			<use xlink:href="#lend4" transform="scale(-3.52,-3.52) "/>
		</marker>
	</defs>
	<defs id="Filters">
		<filter id="filter_2">
			<feGaussianBlur stdDeviation="2"/>
		</filter>
	</defs>
	<g v:mID="0" v:index="1" v:groupContext="foregroundPage">
		<v:userDefs>
			<v:ud v:nameU="msvThemeOrder" v:val="VT0(0):26"/>
		</v:userDefs>
		<title>Page-1</title>
		<v:pageProperties v:drawingScale="1" v:pageScale="1" v:drawingUnits="0" v:shadowOffsetX="9" v:shadowOffsetY="-9"/>
		<v:layer v:name="Connector" v:index="0"/>
		<g id="shape1-1" v:mID="1" v:groupContext="shape" transform="translate(305.407,-194.348)">
			<title>Frame</title>
			<v:userDefs>
				<v:ud v:nameU="visVersion" v:prompt="" v:val="VT0(15):26"/>
			</v:userDefs>
			<g id="shadow1-2" v:groupContext="shadow" v:shadowOffsetX="0.345598" v:shadowOffsetY="-1.97279" v:shadowType="1"
					transform="matrix(1,0,0,1,0.345598,1.97279)" class="st1">
				<path d="M0 351.75 L207 351.75 L207 213.75 L0 213.75 L0 351.75 ZM9 342.75 L198 342.75 L198 222.75 L9 222.75 L9 342.75
							 Z" class="st2"/>
			</g>
			<path d="M0 351.75 L207 351.75 L207 213.75 L0 213.75 L0 351.75 ZM9 342.75 L198 342.75 L198 222.75 L9 222.75 L9 342.75
						 Z" class="st3"/>
		</g>
		<g id="shape2-6" v:mID="2" v:groupContext="shape" transform="translate(305.407,-23.3478)">
			<title>Frame.2</title>
			<v:userDefs>
				<v:ud v:nameU="visVersion" v:prompt="" v:val="VT0(15):26"/>
			</v:userDefs>
			<g id="shadow2-7" v:groupContext="shadow" v:shadowOffsetX="0.345598" v:shadowOffsetY="-1.97279" v:shadowType="1"
					transform="matrix(1,0,0,1,0.345598,1.97279)" class="st1">
				<path d="M0 351.75 L207 351.75 L207 213.75 L0 213.75 L0 351.75 ZM9 342.75 L198 342.75 L198 222.75 L9 222.75 L9 342.75
							 Z" class="st2"/>
			</g>
			<path d="M0 351.75 L207 351.75 L207 213.75 L0 213.75 L0 351.75 ZM9 342.75 L198 342.75 L198 222.75 L9 222.75 L9 342.75
						 Z" class="st4"/>
		</g>
		<g id="shape3-11" v:mID="3" v:groupContext="shape" transform="translate(330.652,-241.178)">
			<title>Rectangle</title>
			<desc>Nginx TLS</desc>
			<v:userDefs>
				<v:ud v:nameU="visVersion" v:val="VT0(15):26"/>
			</v:userDefs>
			<v:textBlock v:margins="rect(4,4,4,4)"/>
			<v:textRect cx="33.255" cy="329.58" width="66.51" height="44.34"/>
			<g id="shadow3-12" v:groupContext="shadow" v:shadowOffsetX="0.345598" v:shadowOffsetY="-1.97279" v:shadowType="1"
					transform="matrix(1,0,0,1,0.345598,1.97279)" class="st1">
				<rect x="0" y="307.41" width="66.51" height="44.34" class="st2"/>
			</g>
			<rect x="0" y="307.41" width="66.51" height="44.34" class="st3"/>
			<text x="17.13" y="325.38" class="st5" v:langID="1033"><v:paragraph v:horizAlign="1"/><v:tabList/>Nginx<v:newlineChar/><tspan
						x="23.68" dy="1.2em" class="st6">TLS</tspan></text>		</g>
		<g id="shape4-18" v:mID="4" v:groupContext="shape" transform="translate(420.652,-241.178)">
			<title>Rectangle.4</title>
			<desc>Web app</desc>
			<v:userDefs>
				<v:ud v:nameU="visVersion" v:val="VT0(15):26"/>
			</v:userDefs>
			<v:textBlock v:margins="rect(4,4,4,4)"/>
			<v:textRect cx="33.255" cy="329.58" width="66.51" height="44.34"/>
			<g id="shadow4-19" v:groupContext="shadow" v:shadowOffsetX="0.345598" v:shadowOffsetY="-1.97279" v:shadowType="1"
					transform="matrix(1,0,0,1,0.345598,1.97279)" class="st1">
				<rect x="0" y="307.41" width="66.51" height="44.34" class="st2"/>
			</g>
			<rect x="0" y="307.41" width="66.51" height="44.34" class="st3"/>
			<text x="7.58" y="333.78" class="st5" v:langID="1033"><v:paragraph v:horizAlign="1"/><v:tabList/>Web app</text>		</g>
		<g id="shape5-24" v:mID="5" v:groupContext="shape" transform="translate(30.0294,-56.3478)">
			<title>Rectangle.5</title>
			<desc>Braintree backend</desc>
			<v:userDefs>
				<v:ud v:nameU="visVersion" v:val="VT0(15):26"/>
			</v:userDefs>
			<v:textBlock v:margins="rect(4,4,4,4)"/>
			<v:textRect cx="63" cy="315.75" width="126" height="72"/>
			<g id="shadow5-25" v:groupContext="shadow" v:shadowOffsetX="0.345598" v:shadowOffsetY="-1.97279" v:shadowType="1"
					transform="matrix(1,0,0,1,0.345598,1.97279)" class="st1">
				<rect x="0" y="279.75" width="126" height="72" class="st2"/>
			</g>
			<rect x="0" y="279.75" width="126" height="72" class="st3"/>
			<text x="10.77" y="319.95" class="st5" v:langID="1033"><v:paragraph v:horizAlign="1"/><v:tabList/>Braintree backend</text>		</g>
		<g id="shape6-30" v:mID="6" v:groupContext="shape" transform="translate(21.0294,-209.348)">
			<title>Ellipse</title>
			<desc>Internet</desc>
			<v:userDefs>
				<v:ud v:nameU="visVersion" v:val="VT0(15):26"/>
			</v:userDefs>
			<v:textBlock v:margins="rect(4,4,4,4)"/>
			<v:textRect cx="81" cy="297.75" width="141.75" height="94.5"/>
			<g id="shadow6-31" v:groupContext="shadow" v:shadowOffsetX="0.345598" v:shadowOffsetY="-1.97279" v:shadowType="1"
					transform="matrix(1,0,0,1,0.345598,1.97279)" class="st1">
				<path d="M0 297.75 A81 54 0 0 1 162 297.75 A81 54 0 1 1 0 297.75 Z" class="st2"/>
			</g>
			<path d="M0 297.75 A81 54 0 0 1 162 297.75 A81 54 0 1 1 0 297.75 Z" class="st3"/>
			<text x="57.79" y="301.95" class="st5" v:langID="1033"><v:paragraph v:horizAlign="1"/><v:tabList/>Internet</text>		</g>
		<g id="shape8-36" v:mID="8" v:groupContext="shape" v:layerMember="0" transform="translate(397.162,-254.348)">
			<title>Dynamic connector.8</title>
			<path d="M0 342.75 L16.45 342.75" class="st7"/>
		</g>
		<g id="shape9-42" v:mID="9" v:groupContext="shape" v:layerMember="0" transform="translate(363.907,-241.178)">
			<title>Dynamic connector.9</title>
			<path d="M0 351.75 L0 415.27 L45 415.27 L45 424.54" class="st9"/>
		</g>
		<g id="shape12-48" v:mID="12" v:groupContext="shape" v:layerMember="0" transform="translate(183.029,-254.348)">
			<title>Dynamic connector</title>
			<path d="M0 342.75 L36.91 342.75 L36.91 361.18 L110.72 361.18 L110.72 342.75 L140.58 342.75" class="st9"/>
		</g>
		<g id="shape13-53" v:mID="13" v:groupContext="shape" v:layerMember="0" transform="translate(183.029,-254.348)">
			<title>Dynamic connector.13</title>
			<path d="M0 342.75 L36.91 342.75 L36.91 322.61 L110.72 322.61 L110.72 342.75 L140.58 342.75" class="st7"/>
		</g>
		<g id="shape14-58" v:mID="14" v:groupContext="shape" transform="translate(180.315,-285.062)">
			<title>Sheet.14</title>
			<desc>conorpp.com</desc>
			<v:textBlock v:margins="rect(4,4,4,4)"/>
			<v:textRect cx="76" cy="341.75" width="152" height="20"/>
			<rect x="0" y="331.75" width="152" height="20" class="st11"/>
			<text x="43.58" y="345.35" class="st12" v:langID="1033"><v:paragraph v:horizAlign="1"/><v:tabList/>conorpp.com</text>		</g>
		<g id="shape15-61" v:mID="15" v:groupContext="shape" transform="translate(166.029,-224.348)">
			<title>Sheet.15</title>
			<desc>braintree.conorpp.com</desc>
			<v:textBlock v:margins="rect(4,4,4,4)"/>
			<v:textRect cx="76" cy="341.75" width="152" height="20"/>
			<rect x="0" y="331.75" width="152" height="20" class="st11"/>
			<text x="19.34" y="345.35" class="st13" v:langID="1033"><v:paragraph v:horizAlign="1"/><v:tabList/>braintree.conorpp.com</text>		</g>
		<g id="shape17-64" v:mID="17" v:groupContext="shape" v:layerMember="0" transform="translate(305.407,-83.3478)">
			<title>Dynamic connector.17</title>
			<desc>API key, Nonce</desc>
			<v:textBlock v:margins="rect(4,4,4,4)"/>
			<v:textRect cx="-74.6887" cy="342.75" width="96.18" height="24.8035"/>
			<path d="M0 342.75 L-142.34 342.75" class="st7"/>
			<rect v:rectContext="textBkgnd" x="-117.194" y="334.35" width="85.0111" height="16.8" class="st14"/>
			<text x="-117.19" y="346.95" class="st15" v:langID="1033"><v:paragraph v:horizAlign="1"/><v:tabList/>API key, Nonce</text>		</g>
		<g id="shape18-71" v:mID="18" v:groupContext="shape" transform="translate(408.029,-161.348)">
			<title>Sheet.18</title>
			<desc>braintreebox.conorpp.com</desc>
			<v:textBlock v:margins="rect(4,4,4,4)"/>
			<v:textRect cx="71.5" cy="341.75" width="143" height="20"/>
			<rect x="0" y="331.75" width="143" height="20" class="st11"/>
			<text x="5.93" y="345.35" class="st13" v:langID="1033"><v:paragraph v:horizAlign="1"/><v:tabList/>braintreebox.conorpp.com</text>		</g>
		<g id="shape19-74" v:mID="19" v:groupContext="shape" transform="translate(426.029,-94.1778)">
			<title>Rectangle.19</title>
			<desc>Nginx TLS</desc>
			<v:userDefs>
				<v:ud v:nameU="visVersion" v:val="VT0(15):26"/>
			</v:userDefs>
			<v:textBlock v:margins="rect(4,4,4,4)"/>
			<v:textRect cx="33.255" cy="329.58" width="66.52" height="44.34"/>
			<g id="shadow19-75" v:groupContext="shadow" v:shadowOffsetX="0.345598" v:shadowOffsetY="-1.97279" v:shadowType="1"
					transform="matrix(1,0,0,1,0.345598,1.97279)" class="st1">
				<rect x="0" y="307.41" width="66.51" height="44.34" class="st2"/>
			</g>
			<rect x="0" y="307.41" width="66.51" height="44.34" class="st3"/>
			<text x="17.13" y="325.38" class="st5" v:langID="1033"><v:paragraph v:horizAlign="1"/><v:tabList/>Nginx<v:newlineChar/><tspan
						x="23.68" dy="1.2em" class="st6">TLS</tspan></text>		</g>
		<g id="shape20-81" v:mID="20" v:groupContext="shape" v:layerMember="0" transform="translate(420.652,-254.348)">
			<title>Dynamic connector.20</title>
			<path d="M0 342.75 L-16.45 342.75" class="st7"/>
		</g>
		<g id="shape23-86" v:mID="23" v:groupContext="shape" transform="translate(336.029,-56.3478)">
			<title>Rectangle.23</title>
			<desc>Braintree server</desc>
			<v:userDefs>
				<v:ud v:nameU="visVersion" v:val="VT0(15):26"/>
			</v:userDefs>
			<v:textBlock v:margins="rect(4,4,4,4)"/>
			<v:textRect cx="33.255" cy="329.58" width="66.51" height="44.34"/>
			<g id="shadow23-87" v:groupContext="shadow" v:shadowOffsetX="0.345598" v:shadowOffsetY="-1.97279" v:shadowType="1"
					transform="matrix(1,0,0,1,0.345598,1.97279)" class="st1">
				<rect x="0" y="307.41" width="66.51" height="44.34" class="st2"/>
			</g>
			<rect x="0" y="307.41" width="66.51" height="44.34" class="st3"/>
			<text x="6.62" y="325.38" class="st5" v:langID="1033"><v:paragraph v:horizAlign="1"/><v:tabList/>Braintree <tspan
						x="15.51" dy="1.2em" class="st6">server</tspan></text>		</g>
		<g id="shape24-93" v:mID="24" v:groupContext="shape" v:layerMember="0" transform="translate(408.468,-161.348)">
			<title>Dynamic connector.24</title>
			<path d="M0.44 351.75 L0.44 396.75 L10.52 396.75" class="st7"/>
		</g>
		<g id="shape26-98" v:mID="26" v:groupContext="shape" v:layerMember="0" transform="translate(459.284,-95.3478)">
			<title>Dynamic connector.26</title>
			<path d="M0 352.92 L0 368.58 L-49.71 368.58" class="st7"/>
		</g>
		<g id="shape27-103" v:mID="27" v:groupContext="shape" v:layerMember="0" transform="translate(336.029,-76.4328)">
			<title>Dynamic connector.27</title>
			<path d="M0 349.67 L-9 349.67 L-9 335.84 L-23.58 335.84" class="st7"/>
		</g>
		<g id="shape28-108" v:mID="28" v:groupContext="shape" v:layerMember="0" transform="translate(402.539,-77.3478)">
			<title>Dynamic connector.28</title>
			<path d="M0 350.58 L56.74 350.58 L56.74 341.96" class="st7"/>
		</g>
		<g id="group48-113" transform="translate(277.529,-137.348)" v:mID="48" v:groupContext="group">
			<v:userDefs>
				<v:ud v:nameU="visVersion" v:val="VT0(15):26"/>
			</v:userDefs>
			<title>&#34;NO&#34; sign</title>
			<g id="shape49-114" v:mID="49" v:groupContext="shape">
				<title>Sheet.49</title>
				<path d="M0 338.25 A13.5 13.5 -180 0 0 27 338.25 A13.5 13.5 -180 0 0 0 338.25 ZM19.16 345.82 A9.45 9.45 0 0 1 4.05
							 338.25 A9.45002 9.45002 0 0 1 5.93 332.59 L19.16 345.82 ZM7.84 330.68 A9.45 9.45 0 0 1 22.95 338.25
							 A9.45002 9.45002 0 0 1 21.07 343.91 L7.84 330.68 Z" class="st16"/>
			</g>
			<g id="shape50-116" v:mID="50" v:groupContext="shape" transform="translate(-1.3789E-013,6.75)">
				<title>Sheet.50</title>
				<rect x="0" y="345" width="27" height="6.75" class="st17"/>
			</g>
		</g>
		<g id="shape52-118" v:mID="52" v:groupContext="shape" v:layerMember="0" transform="translate(102.029,-209.348)">
			<title>Dynamic connector.52</title>
			<path d="M0 351.75 L0 410.25 L168.46 410.25" class="st7"/>
		</g>
	</g>
</svg>
