<?xml version="1.0" encoding="UTF-8" standalone="no"?>
<!DOCTYPE svg PUBLIC "-//W3C//DTD SVG 1.1//EN" "http://www.w3.org/Graphics/SVG/1.1/DTD/svg11.dtd">
<!-- Generated by Microsoft Visio, SVG Export i1.svg Page-1 -->
<svg xmlns="http://www.w3.org/2000/svg" xmlns:xlink="http://www.w3.org/1999/xlink" xmlns:ev="http://www.w3.org/2001/xml-events"
		xmlns:v="http://schemas.microsoft.com/visio/2003/SVGExtensions/" width="4.20625in" height="3.16667in"
		viewBox="0 0 302.85 228" xml:space="preserve" color-interpolation-filters="sRGB" class="st12">
	<v:documentProperties v:langID="1033" v:viewMarkup="false">
		<v:userDefs>
			<v:ud v:nameU="msvSubprocessMaster" v:prompt="" v:val="VT4(Rectangle)"/>
			<v:ud v:nameU="msvNoAutoConnect" v:val="VT0(1):26"/>
		</v:userDefs>
	</v:documentProperties>

	<style type="text/css">
	<![CDATA[
		.st1 {visibility:visible}
		.st2 {fill:#5b9bd5;fill-opacity:0.22;filter:url(#filter_2);stroke:#5b9bd5;stroke-opacity:0.22}
		.st3 {fill:#5b9bd5;stroke:#c7c8c8;stroke-width:0.25}
		.st4 {fill:#feffff;font-family:Calibri;font-size:0.833336em}
		.st5 {font-size:1em}
		.st6 {marker-end:url(#mrkr4-26);stroke:#5b9bd5;stroke-linecap:round;stroke-linejoin:round;stroke-width:1}
		.st7 {fill:#5b9bd5;fill-opacity:1;stroke:#5b9bd5;stroke-opacity:1;stroke-width:0.28409090909091}
		.st8 {fill:#ff0000;stroke:#c7c8c8;stroke-width:0.25}
		.st9 {fill:#feffff;font-family:Calibri;font-size:0.75em}
		.st10 {fill:#ed7d31;stroke:#c7c8c8;stroke-width:0.25}
		.st11 {fill:#feffff;font-family:Calibri;font-size:0.666664em}
		.st12 {fill:none;fill-rule:evenodd;font-size:12px;overflow:visible;stroke-linecap:square;stroke-miterlimit:3}
	]]>
	</style>

	<defs id="Markers">
		<g id="lend4">
			<path d="M 2 1 L 0 0 L 2 -1 L 2 1 " style="stroke:none"/>
		</g>
		<marker id="mrkr4-26" class="st7" v:arrowType="4" v:arrowSize="2" v:setback="7.04" refX="-7.04" orient="auto"
				markerUnits="strokeWidth" overflow="visible">
			<use xlink:href="#lend4" transform="scale(-3.52,-3.52) "/>
		</marker>
	</defs>
	<defs id="Filters">
		<filter id="filter_2">
			<feGaussianBlur stdDeviation="2"/>
		</filter>
	</defs>
	<g v:mID="0" v:index="1" v:groupContext="foregroundPage">
		<v:userDefs>
			<v:ud v:nameU="msvThemeOrder" v:val="VT0(0):26"/>
		</v:userDefs>
		<title>Page-1</title>
		<v:pageProperties v:drawingScale="1" v:pageScale="1" v:drawingUnits="0" v:shadowOffsetX="9" v:shadowOffsetY="-9"/>
		<v:layer v:name="Connector" v:index="0"/>
		<g id="shape1-1" v:mID="1" v:groupContext="shape" transform="translate(21.0294,-86.3478)">
			<title>Rectangle</title>
			<desc>32 Bit Processor</desc>
			<v:userDefs>
				<v:ud v:nameU="visVersion" v:val="VT0(15):26"/>
			</v:userDefs>
			<v:textBlock v:margins="rect(4,4,4,4)"/>
			<v:textRect cx="42.75" cy="199.5" width="85.5" height="57"/>
			<g id="shadow1-2" v:groupContext="shadow" v:shadowOffsetX="0.345598" v:shadowOffsetY="-1.97279" v:shadowType="1"
					transform="matrix(1,0,0,1,0.345598,1.97279)" class="st1">
				<rect x="0" y="171" width="85.5" height="57" class="st2"/>
			</g>
			<rect x="0" y="171" width="85.5" height="57" class="st3"/>
			<text x="10.02" y="202.5" class="st4" v:langID="1033"><v:paragraph v:horizAlign="1"/><v:tabList/>32 Bit Processor</text>		</g>
		<g id="shape3-7" v:mID="3" v:groupContext="shape" transform="translate(151.529,-131.348)">
			<title>Rounded Rectangle</title>
			<desc>Program memory</desc>
			<v:userDefs>
				<v:ud v:nameU="CTypeTopLeftSnip" v:prompt="" v:val="VT0(0):5"/>
				<v:ud v:nameU="CTypeTopRightSnip" v:prompt="" v:val="VT0(0):5"/>
				<v:ud v:nameU="CTypeBotLeftSnip" v:prompt="" v:val="VT0(0):5"/>
				<v:ud v:nameU="CTypeBotRightSnip" v:prompt="" v:val="VT0(0):5"/>
				<v:ud v:nameU="CornerLockHoriz" v:prompt="" v:val="VT0(1):5"/>
				<v:ud v:nameU="CornerLockVert" v:prompt="" v:val="VT0(1):5"/>
				<v:ud v:nameU="CornerLockDiag" v:prompt="" v:val="VT0(0):5"/>
				<v:ud v:nameU="TopLeftOffset" v:prompt="" v:val="VT0(0.15):1"/>
				<v:ud v:nameU="TopRightOffset" v:prompt="" v:val="VT0(0.15):1"/>
				<v:ud v:nameU="BotLeftOffset" v:prompt="" v:val="VT0(0.15):1"/>
				<v:ud v:nameU="BotRightOffset" v:prompt="" v:val="VT0(0.15):1"/>
				<v:ud v:nameU="visVersion" v:prompt="" v:val="VT0(15):26"/>
				<v:ud v:nameU="TopLeftOffset" v:prompt="" v:val="VT0(0.075):1"/>
				<v:ud v:nameU="TopRightOffset" v:prompt="" v:val="VT0(0.075):1"/>
				<v:ud v:nameU="BotLeftOffset" v:prompt="" v:val="VT0(0.075):1"/>
				<v:ud v:nameU="BotRightOffset" v:prompt="" v:val="VT0(0.075):1"/>
			</v:userDefs>
			<v:textBlock v:margins="rect(4,4,4,4)"/>
			<v:textRect cx="27" cy="210" width="54.01" height="36"/>
			<g id="shadow3-8" v:groupContext="shadow" v:shadowOffsetX="0.345598" v:shadowOffsetY="-1.97279" v:shadowType="1"
					transform="matrix(1,0,0,1,0.345598,1.97279)" class="st1">
				<path d="M5.4 228 L48.6 228 A5.39991 5.39991 -180 0 0 54 222.6 L54 197.4 A5.39991 5.39991 -180 0 0 48.6 192 L5.4
							 192 A5.39991 5.39991 -180 0 0 0 197.4 L0 222.6 A5.39991 5.39991 -180 0 0 5.4 228 Z" class="st2"/>
			</g>
			<path d="M5.4 228 L48.6 228 A5.39991 5.39991 -180 0 0 54 222.6 L54 197.4 A5.39991 5.39991 -180 0 0 48.6 192 L5.4 192
						 A5.39991 5.39991 -180 0 0 0 197.4 L0 222.6 A5.39991 5.39991 -180 0 0 5.4 228 Z" class="st3"/>
			<text x="9.55" y="207" class="st4" v:langID="1033"><v:paragraph v:horizAlign="1"/><v:tabList/>Program <tspan x="9.88"
						dy="1.2em" class="st5">memory</tspan></text>		</g>
		<g id="shape4-14" v:mID="4" v:groupContext="shape" transform="translate(227.129,-68.3478)">
			<title>Rounded Rectangle.4</title>
			<desc>Pixel memory</desc>
			<v:userDefs>
				<v:ud v:nameU="CTypeTopLeftSnip" v:prompt="" v:val="VT0(0):5"/>
				<v:ud v:nameU="CTypeTopRightSnip" v:prompt="" v:val="VT0(0):5"/>
				<v:ud v:nameU="CTypeBotLeftSnip" v:prompt="" v:val="VT0(0):5"/>
				<v:ud v:nameU="CTypeBotRightSnip" v:prompt="" v:val="VT0(0):5"/>
				<v:ud v:nameU="CornerLockHoriz" v:prompt="" v:val="VT0(1):5"/>
				<v:ud v:nameU="CornerLockVert" v:prompt="" v:val="VT0(1):5"/>
				<v:ud v:nameU="CornerLockDiag" v:prompt="" v:val="VT0(0):5"/>
				<v:ud v:nameU="TopLeftOffset" v:prompt="" v:val="VT0(0.15):1"/>
				<v:ud v:nameU="TopRightOffset" v:prompt="" v:val="VT0(0.15):1"/>
				<v:ud v:nameU="BotLeftOffset" v:prompt="" v:val="VT0(0.15):1"/>
				<v:ud v:nameU="BotRightOffset" v:prompt="" v:val="VT0(0.15):1"/>
				<v:ud v:nameU="visVersion" v:prompt="" v:val="VT0(15):26"/>
				<v:ud v:nameU="TopLeftOffset" v:prompt="" v:val="VT0(0.075):1"/>
				<v:ud v:nameU="TopRightOffset" v:prompt="" v:val="VT0(0.075):1"/>
				<v:ud v:nameU="BotLeftOffset" v:prompt="" v:val="VT0(0.075):1"/>
				<v:ud v:nameU="BotRightOffset" v:prompt="" v:val="VT0(0.075):1"/>
			</v:userDefs>
			<v:textBlock v:margins="rect(4,4,4,4)"/>
			<v:textRect cx="27" cy="210" width="54" height="36"/>
			<g id="shadow4-15" v:groupContext="shadow" v:shadowOffsetX="0.345598" v:shadowOffsetY="-1.97279" v:shadowType="1"
					transform="matrix(1,0,0,1,0.345598,1.97279)" class="st1">
				<path d="M5.4 228 L48.6 228 A5.39991 5.39991 -180 0 0 54 222.6 L54 197.4 A5.39991 5.39991 -180 0 0 48.6 192 L5.4
							 192 A5.39991 5.39991 -180 0 0 0 197.4 L0 222.6 A5.39991 5.39991 -180 0 0 5.4 228 Z" class="st2"/>
			</g>
			<path d="M5.4 228 L48.6 228 A5.39991 5.39991 -180 0 0 54 222.6 L54 197.4 A5.39991 5.39991 -180 0 0 48.6 192 L5.4 192
						 A5.39991 5.39991 -180 0 0 0 197.4 L0 222.6 A5.39991 5.39991 -180 0 0 5.4 228 Z" class="st3"/>
			<text x="17.47" y="207" class="st4" v:langID="1033"><v:paragraph v:horizAlign="1"/><v:tabList/>Pixel <tspan x="9.88"
						dy="1.2em" class="st5">memory</tspan></text>		</g>
		<g id="shape5-21" v:mID="5" v:groupContext="shape" v:layerMember="0" transform="translate(106.529,-114.848)">
			<title>Dynamic connector</title>
			<path d="M0 228 L24.28 228 L24.28 193.5 L37.96 193.5" class="st6"/>
		</g>
		<g id="shape8-27" v:mID="8" v:groupContext="shape" v:layerMember="0" transform="translate(151.529,-149.348)">
			<title>Dynamic connector.8</title>
			<path d="M0 228 L-20.72 228 L-20.72 262.5 L-37.96 262.5" class="st6"/>
		</g>
		<g id="shape9-32" v:mID="9" v:groupContext="shape" transform="translate(44.6544,-170.348)">
			<title>Octagon</title>
			<desc>50 MHz Timer</desc>
			<v:userDefs>
				<v:ud v:nameU="visVersion" v:val="VT0(15):26"/>
			</v:userDefs>
			<v:textBlock v:margins="rect(4,4,4,4)"/>
			<v:textRect cx="19.125" cy="208.875" width="38.25" height="38.25"/>
			<g id="shadow9-33" v:groupContext="shadow" v:shadowOffsetX="0.345598" v:shadowOffsetY="-1.97279" v:shadowType="1"
					transform="matrix(1,0,0,1,0.345598,1.97279)" class="st1">
				<path d="M27.05 189.75 L11.2 189.75 L0 200.95 L0 216.8 L11.2 228 L27.05 228 L38.25 216.8 L38.25 200.95 L27.05 189.75
							 Z" class="st2"/>
			</g>
			<path d="M27.05 189.75 L11.2 189.75 L0 200.95 L0 216.8 L11.2 228 L27.05 228 L38.25 216.8 L38.25 200.95 L27.05 189.75 Z"
					class="st8"/>
			<text x="5.12" y="206.18" class="st9" v:langID="1033"><v:paragraph v:horizAlign="1"/><v:tabList/>50 MHz <tspan x="8.5"
						dy="1.2em" class="st5">Timer</tspan></text>		</g>
		<g id="shape10-39" v:mID="10" v:groupContext="shape" transform="translate(84.9294,-23.3478)">
			<title>Circle</title>
			<desc>50 MHz clock</desc>
			<v:userDefs>
				<v:ud v:nameU="visVersion" v:val="VT0(15):26"/>
			</v:userDefs>
			<v:textBlock v:margins="rect(4,4,4,4)"/>
			<v:textRect cx="22.5" cy="205.5" width="39.38" height="33.75"/>
			<g id="shadow10-40" v:groupContext="shadow" v:shadowOffsetX="0.345598" v:shadowOffsetY="-1.97279" v:shadowType="1"
					transform="matrix(1,0,0,1,0.345598,1.97279)" class="st1">
				<path d="M0 205.5 A22.5 22.5 0 0 1 45 205.5 A22.5 22.5 0 1 1 0 205.5 Z" class="st2"/>
			</g>
			<path d="M0 205.5 A22.5 22.5 0 0 1 45 205.5 A22.5 22.5 0 1 1 0 205.5 Z" class="st10"/>
			<text x="6.94" y="202.5" class="st4" v:langID="1033"><v:paragraph v:horizAlign="1"/><v:tabList/>50 MHz <tspan x="12.21"
						dy="1.2em" class="st5">clock</tspan></text>		</g>
		<g id="shape14-46" v:mID="14" v:groupContext="shape" v:layerMember="0" transform="translate(72.9615,-170.348)">
			<title>Dynamic connector.14</title>
			<path d="M-8.82 228 L-8.82 241.5 L-9.18 241.5 L-9.18 247.96" class="st6"/>
		</g>
		<g id="shape15-51" v:mID="15" v:groupContext="shape" v:layerMember="0" transform="translate(54.9615,-143.348)">
			<title>Dynamic connector.15</title>
			<path d="M8.82 228 L8.82 214.5 L9.18 214.5 L9.18 208.04" class="st6"/>
		</g>
		<g id="shape16-56" v:mID="16" v:groupContext="shape" transform="translate(151.529,-68.3478)">
			<title>Rectangle.16</title>
			<desc>Coprocessor</desc>
			<v:userDefs>
				<v:ud v:nameU="visVersion" v:val="VT0(15):26"/>
			</v:userDefs>
			<v:textBlock v:margins="rect(4,4,4,4)"/>
			<v:textRect cx="27" cy="210" width="54" height="36"/>
			<g id="shadow16-57" v:groupContext="shadow" v:shadowOffsetX="0.345598" v:shadowOffsetY="-1.97279" v:shadowType="1"
					transform="matrix(1,0,0,1,0.345598,1.97279)" class="st1">
				<rect x="0" y="192" width="54" height="36" class="st2"/>
			</g>
			<rect x="0" y="192" width="54" height="36" class="st3"/>
			<text x="6.84" y="212.4" class="st11" v:langID="1033"><v:paragraph v:horizAlign="1"/><v:tabList/>Coprocessor</text>		</g>
		<g id="shape17-62" v:mID="17" v:groupContext="shape" v:layerMember="0" transform="translate(106.529,-114.848)">
			<title>Dynamic connector.17</title>
			<path d="M0 228 L23.4 228 L23.4 256.5 L37.96 256.5" class="st6"/>
		</g>
		<g id="shape18-67" v:mID="18" v:groupContext="shape" v:layerMember="0" transform="translate(205.529,-77.3478)">
			<title>Dynamic connector.18</title>
			<path d="M0 219 L14.56 219" class="st6"/>
		</g>
		<g id="shape19-72" v:mID="19" v:groupContext="shape" v:layerMember="0" transform="translate(227.129,-77.3478)">
			<title>Dynamic connector.19</title>
			<path d="M0 219 L-14.56 219" class="st6"/>
		</g>
		<g id="shape20-77" v:mID="20" v:groupContext="shape" v:layerMember="0" transform="translate(151.529,-86.3478)">
			<title>Dynamic connector.20</title>
			<path d="M0 228 L-21.6 228 L-21.6 199.5 L-37.96 199.5" class="st6"/>
		</g>
	</g>
</svg>
