<?xml version="1.0" encoding="UTF-8" standalone="no"?>
<!DOCTYPE svg PUBLIC "-//W3C//DTD SVG 1.1//EN" "http://www.w3.org/Graphics/SVG/1.1/DTD/svg11.dtd">
<!-- Generated by Microsoft Visio, SVG Export i2.svg Page-1 -->
<svg xmlns="http://www.w3.org/2000/svg" xmlns:xlink="http://www.w3.org/1999/xlink" xmlns:ev="http://www.w3.org/2001/xml-events"
		xmlns:v="http://schemas.microsoft.com/visio/2003/SVGExtensions/" width="4.77639in" height="3.05729in"
		viewBox="0 0 343.9 220.125" xml:space="preserve" color-interpolation-filters="sRGB" class="st17">
	<v:documentProperties v:langID="1033" v:viewMarkup="false">
		<v:userDefs>
			<v:ud v:nameU="msvSubprocessMaster" v:prompt="" v:val="VT4(Rectangle)"/>
			<v:ud v:nameU="msvNoAutoConnect" v:val="VT0(1):26"/>
		</v:userDefs>
	</v:documentProperties>

	<style type="text/css">
	<![CDATA[
		.st1 {visibility:visible}
		.st2 {fill:#5b9bd5;fill-opacity:0.22;filter:url(#filter_2);stroke:#5b9bd5;stroke-opacity:0.22}
		.st3 {fill:#5b9bd5;stroke:#c7c8c8;stroke-width:0.25}
		.st4 {fill:#feffff;font-family:Calibri;font-size:0.833336em}
		.st5 {font-size:1em}
		.st6 {marker-end:url(#mrkr4-19);stroke:#5b9bd5;stroke-linecap:round;stroke-linejoin:round;stroke-width:1}
		.st7 {fill:#5b9bd5;fill-opacity:1;stroke:#5b9bd5;stroke-opacity:1;stroke-width:0.28409090909091}
		.st8 {fill:#ff0000;stroke:#c7c8c8;stroke-width:0.25}
		.st9 {fill:#feffff;font-family:Calibri;font-size:0.75em}
		.st10 {fill:#ed7d31;stroke:#c7c8c8;stroke-width:0.25}
		.st11 {fill:none;stroke:none;stroke-width:0.25}
		.st12 {fill:#5b9bd5;font-family:Calibri;font-size:2.50001em}
		.st13 {fill:#5b9bd5;stroke:#c8c8c8;stroke-width:0.25}
		.st14 {fill:#feffff;font-family:Calibri;font-size:0.666664em}
		.st15 {marker-end:url(#mrkr4-104);stroke:#ed7d31;stroke-linecap:round;stroke-linejoin:round;stroke-width:1}
		.st16 {fill:#ed7d31;fill-opacity:1;stroke:#ed7d31;stroke-opacity:1;stroke-width:0.28409090909091}
		.st17 {fill:none;fill-rule:evenodd;font-size:12px;overflow:visible;stroke-linecap:square;stroke-miterlimit:3}
	]]>
	</style>

	<defs id="Markers">
		<g id="lend4">
			<path d="M 2 1 L 0 0 L 2 -1 L 2 1 " style="stroke:none"/>
		</g>
		<marker id="mrkr4-19" class="st7" v:arrowType="4" v:arrowSize="2" v:setback="7.04" refX="-7.04" orient="auto"
				markerUnits="strokeWidth" overflow="visible">
			<use xlink:href="#lend4" transform="scale(-3.52,-3.52) "/>
		</marker>
		<marker id="mrkr4-104" class="st16" v:arrowType="4" v:arrowSize="2" v:setback="7.04" refX="-7.04" orient="auto"
				markerUnits="strokeWidth" overflow="visible">
			<use xlink:href="#lend4" transform="scale(-3.52,-3.52) "/>
		</marker>
	</defs>
	<defs id="Filters">
		<filter id="filter_2">
			<feGaussianBlur stdDeviation="2"/>
		</filter>
	</defs>
	<g v:mID="0" v:index="1" v:groupContext="foregroundPage">
		<v:userDefs>
			<v:ud v:nameU="msvThemeOrder" v:val="VT0(0):26"/>
		</v:userDefs>
		<title>Page-1</title>
		<v:pageProperties v:drawingScale="1" v:pageScale="1" v:drawingUnits="0" v:shadowOffsetX="9" v:shadowOffsetY="-9"/>
		<v:layer v:name="Connector" v:index="0"/>
		<v:layer v:name="Flowchart" v:index="1"/>
		<g id="shape1-1" v:mID="1" v:groupContext="shape" transform="translate(21.0294,-126.848)">
			<title>Rectangle</title>
			<desc>32 Bit Processor</desc>
			<v:userDefs>
				<v:ud v:nameU="visVersion" v:val="VT0(15):26"/>
			</v:userDefs>
			<v:textBlock v:margins="rect(4,4,4,4)"/>
			<v:textRect cx="42.75" cy="197.625" width="85.5" height="45"/>
			<g id="shadow1-2" v:groupContext="shadow" v:shadowOffsetX="0.345598" v:shadowOffsetY="-1.97279" v:shadowType="1"
					transform="matrix(1,0,0,1,0.345598,1.97279)" class="st1">
				<rect x="0" y="175.125" width="85.5" height="45" class="st2"/>
			</g>
			<rect x="0" y="175.125" width="85.5" height="45" class="st3"/>
			<text x="10.02" y="200.63" class="st4" v:langID="1033"><v:paragraph v:horizAlign="1"/><v:tabList/>32 Bit Processor</text>		</g>
		<g id="shape3-7" v:mID="3" v:groupContext="shape" transform="translate(151.529,-162.323)">
			<title>Rounded Rectangle</title>
			<desc>Program memory</desc>
			<v:userDefs>
				<v:ud v:nameU="CTypeTopLeftSnip" v:prompt="" v:val="VT0(0):5"/>
				<v:ud v:nameU="CTypeTopRightSnip" v:prompt="" v:val="VT0(0):5"/>
				<v:ud v:nameU="CTypeBotLeftSnip" v:prompt="" v:val="VT0(0):5"/>
				<v:ud v:nameU="CTypeBotRightSnip" v:prompt="" v:val="VT0(0):5"/>
				<v:ud v:nameU="CornerLockHoriz" v:prompt="" v:val="VT0(1):5"/>
				<v:ud v:nameU="CornerLockVert" v:prompt="" v:val="VT0(1):5"/>
				<v:ud v:nameU="CornerLockDiag" v:prompt="" v:val="VT0(0):5"/>
				<v:ud v:nameU="TopLeftOffset" v:prompt="" v:val="VT0(0.15):1"/>
				<v:ud v:nameU="TopRightOffset" v:prompt="" v:val="VT0(0.15):1"/>
				<v:ud v:nameU="BotLeftOffset" v:prompt="" v:val="VT0(0.15):1"/>
				<v:ud v:nameU="BotRightOffset" v:prompt="" v:val="VT0(0.15):1"/>
				<v:ud v:nameU="visVersion" v:prompt="" v:val="VT0(15):26"/>
				<v:ud v:nameU="TopLeftOffset" v:prompt="" v:val="VT0(0.080000000000001):1"/>
				<v:ud v:nameU="TopRightOffset" v:prompt="" v:val="VT0(0.080000000000001):1"/>
				<v:ud v:nameU="BotLeftOffset" v:prompt="" v:val="VT0(0.080000000000001):1"/>
				<v:ud v:nameU="BotRightOffset" v:prompt="" v:val="VT0(0.080000000000001):1"/>
			</v:userDefs>
			<v:textBlock v:margins="rect(4,4,4,4)"/>
			<v:textRect cx="28.8" cy="200.925" width="57.61" height="38.4"/>
			<g id="shadow3-8" v:groupContext="shadow" v:shadowOffsetX="0.345598" v:shadowOffsetY="-1.97279" v:shadowType="1"
					transform="matrix(1,0,0,1,0.345598,1.97279)" class="st1">
				<path d="M5.76 220.13 L51.84 220.13 A5.75991 5.75991 -180 0 0 57.6 214.37 L57.6 187.49 A5.75991 5.75991 -180 0 0
							 51.84 181.73 L5.76 181.73 A5.75991 5.75991 -180 0 0 0 187.49 L0 214.37 A5.75991 5.75991 -180 0 0 5.76
							 220.13 Z" class="st2"/>
			</g>
			<path d="M5.76 220.13 L51.84 220.13 A5.75991 5.75991 -180 0 0 57.6 214.37 L57.6 187.49 A5.75991 5.75991 -180 0 0 51.84
						 181.73 L5.76 181.73 A5.75991 5.75991 -180 0 0 0 187.49 L0 214.37 A5.75991 5.75991 -180 0 0 5.76 220.13 Z"
					class="st3"/>
			<text x="11.35" y="197.93" class="st4" v:langID="1033"><v:paragraph v:horizAlign="1"/><v:tabList/>Program <tspan
						x="11.68" dy="1.2em" class="st5">memory</tspan></text>		</g>
		<g id="shape5-14" v:mID="5" v:groupContext="shape" v:layerMember="0" transform="translate(106.529,-149.348)">
			<title>Dynamic connector</title>
			<path d="M0 220.13 L24.28 220.13 L24.28 187.95 L37.96 187.95" class="st6"/>
		</g>
		<g id="shape8-20" v:mID="8" v:groupContext="shape" v:layerMember="0" transform="translate(151.529,-181.523)">
			<title>Dynamic connector.8</title>
			<path d="M0 220.13 L-20.72 220.13 L-20.72 252.3 L-37.96 252.3" class="st6"/>
		</g>
		<g id="shape9-25" v:mID="9" v:groupContext="shape" transform="translate(44.6544,-66.0978)">
			<title>Octagon</title>
			<desc>50 MHz Timer</desc>
			<v:userDefs>
				<v:ud v:nameU="visVersion" v:val="VT0(15):26"/>
			</v:userDefs>
			<v:textBlock v:margins="rect(4,4,4,4)"/>
			<v:textRect cx="19.125" cy="201" width="38.25" height="38.25"/>
			<g id="shadow9-26" v:groupContext="shadow" v:shadowOffsetX="0.345598" v:shadowOffsetY="-1.97279" v:shadowType="1"
					transform="matrix(1,0,0,1,0.345598,1.97279)" class="st1">
				<path d="M27.05 181.88 L11.2 181.88 L0 193.08 L0 208.92 L11.2 220.13 L27.05 220.13 L38.25 208.92 L38.25 193.08 L27.05
							 181.88 Z" class="st2"/>
			</g>
			<path d="M27.05 181.88 L11.2 181.88 L0 193.08 L0 208.92 L11.2 220.13 L27.05 220.13 L38.25 208.92 L38.25 193.08 L27.05
						 181.88 Z" class="st8"/>
			<text x="5.12" y="198.3" class="st9" v:langID="1033"><v:paragraph v:horizAlign="1"/><v:tabList/>50 MHz <tspan x="8.5"
						dy="1.2em" class="st5">Timer</tspan></text>		</g>
		<g id="shape10-32" v:mID="10" v:groupContext="shape" transform="translate(79.5294,-27.8478)">
			<title>Circle</title>
			<desc>50 MHz clock</desc>
			<v:userDefs>
				<v:ud v:nameU="visVersion" v:val="VT0(15):26"/>
			</v:userDefs>
			<v:textBlock v:margins="rect(4,4,4,4)"/>
			<v:textRect cx="22.5" cy="197.625" width="39.38" height="33.75"/>
			<g id="shadow10-33" v:groupContext="shadow" v:shadowOffsetX="0.345598" v:shadowOffsetY="-1.97279" v:shadowType="1"
					transform="matrix(1,0,0,1,0.345598,1.97279)" class="st1">
				<path d="M0 197.63 A22.5 22.5 0 0 1 45 197.63 A22.5 22.5 0 1 1 0 197.63 Z" class="st2"/>
			</g>
			<path d="M0 197.63 A22.5 22.5 0 0 1 45 197.63 A22.5 22.5 0 1 1 0 197.63 Z" class="st10"/>
			<text x="6.94" y="194.63" class="st4" v:langID="1033"><v:paragraph v:horizAlign="1"/><v:tabList/>50 MHz <tspan
						x="12.21" dy="1.2em" class="st5">clock</tspan></text>		</g>
		<g id="shape17-39" v:mID="17" v:groupContext="shape" v:layerMember="0" transform="translate(106.529,-149.348)">
			<title>Dynamic connector.17</title>
			<path d="M0 220.13 L23.4 220.13 L23.4 283.69 L31.66 283.69" class="st6"/>
		</g>
		<g id="shape20-44" v:mID="20" v:groupContext="shape" v:layerMember="0" transform="translate(145.229,-85.7853)">
			<title>Dynamic connector.20</title>
			<path d="M0 220.13 L-15.3 220.13 L-15.3 156.56 L-31.66 156.56" class="st6"/>
		</g>
		<g id="shape21-49" v:mID="21" v:groupContext="shape" transform="translate(145.229,-23.3478)">
			<title>Frame</title>
			<v:userDefs>
				<v:ud v:nameU="visVersion" v:prompt="" v:val="VT0(15):26"/>
			</v:userDefs>
			<g id="shadow21-50" v:groupContext="shadow" v:shadowOffsetX="0.345598" v:shadowOffsetY="-1.97279" v:shadowType="1"
					transform="matrix(1,0,0,1,0.345598,1.97279)" class="st1">
				<path d="M0 220.13 L127.8 220.13 L127.8 95.25 L0 95.25 L0 220.13 ZM5.17 214.95 L122.62 214.95 L122.62 100.43 L5.17
							 100.43 L5.17 214.95 Z" class="st2"/>
			</g>
			<path d="M0 220.13 L127.8 220.13 L127.8 95.25 L0 95.25 L0 220.13 ZM5.17 214.95 L122.62 214.95 L122.62 100.43 L5.17 100.43
						 L5.17 214.95 Z" class="st3"/>
		</g>
		<g id="shape24-54" v:mID="24" v:groupContext="shape" transform="translate(167.842,-115.098)">
			<title>Rectangle.24</title>
			<desc>Circle 1</desc>
			<v:userDefs>
				<v:ud v:nameU="visVersion" v:val="VT0(15):26"/>
			</v:userDefs>
			<v:textBlock v:margins="rect(4,4,4,4)"/>
			<v:textRect cx="19.125" cy="210.125" width="38.25" height="20"/>
			<g id="shadow24-55" v:groupContext="shadow" v:shadowOffsetX="0.345598" v:shadowOffsetY="-1.97279" v:shadowType="1"
					transform="matrix(1,0,0,1,0.345598,1.97279)" class="st1">
				<rect x="0" y="200.125" width="38.25" height="20" class="st2"/>
			</g>
			<rect x="0" y="200.125" width="38.25" height="20" class="st3"/>
			<text x="5.65" y="212.83" class="st9" v:langID="1033"><v:paragraph v:horizAlign="1"/><v:tabList/>Circle 1</text>		</g>
		<g id="shape25-60" v:mID="25" v:groupContext="shape" transform="translate(213.967,-115.098)">
			<title>Rectangle.25</title>
			<desc>Mem 1</desc>
			<v:userDefs>
				<v:ud v:nameU="visVersion" v:val="VT0(15):26"/>
			</v:userDefs>
			<v:textBlock v:margins="rect(4,4,4,4)"/>
			<v:textRect cx="19.125" cy="210.125" width="38.25" height="20"/>
			<g id="shadow25-61" v:groupContext="shadow" v:shadowOffsetX="0.345598" v:shadowOffsetY="-1.97279" v:shadowType="1"
					transform="matrix(1,0,0,1,0.345598,1.97279)" class="st1">
				<rect x="0" y="200.125" width="38.25" height="20" class="st2"/>
			</g>
			<rect x="0" y="200.125" width="38.25" height="20" class="st3"/>
			<text x="6.15" y="212.83" class="st9" v:langID="1033"><v:paragraph v:horizAlign="1"/><v:tabList/>Mem 1</text>		</g>
		<g id="shape28-66" v:mID="28" v:groupContext="shape" transform="translate(167.842,-84.3478)">
			<title>Rectangle.28</title>
			<desc>Circle 2</desc>
			<v:userDefs>
				<v:ud v:nameU="visVersion" v:val="VT0(15):26"/>
			</v:userDefs>
			<v:textBlock v:margins="rect(4,4,4,4)"/>
			<v:textRect cx="19.125" cy="210.125" width="38.25" height="20"/>
			<g id="shadow28-67" v:groupContext="shadow" v:shadowOffsetX="0.345598" v:shadowOffsetY="-1.97279" v:shadowType="1"
					transform="matrix(1,0,0,1,0.345598,1.97279)" class="st1">
				<rect x="0" y="200.125" width="38.25" height="20" class="st2"/>
			</g>
			<rect x="0" y="200.125" width="38.25" height="20" class="st3"/>
			<text x="5.65" y="212.83" class="st9" v:langID="1033"><v:paragraph v:horizAlign="1"/><v:tabList/>Circle 2</text>		</g>
		<g id="shape29-72" v:mID="29" v:groupContext="shape" transform="translate(213.967,-84.3478)">
			<title>Rectangle.29</title>
			<desc>Mem 2</desc>
			<v:userDefs>
				<v:ud v:nameU="visVersion" v:val="VT0(15):26"/>
			</v:userDefs>
			<v:textBlock v:margins="rect(4,4,4,4)"/>
			<v:textRect cx="19.125" cy="210.125" width="38.25" height="20"/>
			<g id="shadow29-73" v:groupContext="shadow" v:shadowOffsetX="0.345598" v:shadowOffsetY="-1.97279" v:shadowType="1"
					transform="matrix(1,0,0,1,0.345598,1.97279)" class="st1">
				<rect x="0" y="200.125" width="38.25" height="20" class="st2"/>
			</g>
			<rect x="0" y="200.125" width="38.25" height="20" class="st3"/>
			<text x="6.15" y="212.83" class="st9" v:langID="1033"><v:paragraph v:horizAlign="1"/><v:tabList/>Mem 2</text>		</g>
		<g id="shape30-78" v:mID="30" v:groupContext="shape" transform="translate(167.842,-40.3478)">
			<title>Rectangle.30</title>
			<desc>Circle N</desc>
			<v:userDefs>
				<v:ud v:nameU="visVersion" v:val="VT0(15):26"/>
			</v:userDefs>
			<v:textBlock v:margins="rect(4,4,4,4)"/>
			<v:textRect cx="19.125" cy="210.125" width="38.25" height="20"/>
			<g id="shadow30-79" v:groupContext="shadow" v:shadowOffsetX="0.345598" v:shadowOffsetY="-1.97279" v:shadowType="1"
					transform="matrix(1,0,0,1,0.345598,1.97279)" class="st1">
				<rect x="0" y="200.125" width="38.25" height="20" class="st2"/>
			</g>
			<rect x="0" y="200.125" width="38.25" height="20" class="st3"/>
			<text x="5.03" y="212.83" class="st9" v:langID="1033"><v:paragraph v:horizAlign="1"/><v:tabList/>Circle N</text>		</g>
		<g id="shape31-84" v:mID="31" v:groupContext="shape" transform="translate(213.967,-40.3478)">
			<title>Rectangle.31</title>
			<desc>Mem N</desc>
			<v:userDefs>
				<v:ud v:nameU="visVersion" v:val="VT0(15):26"/>
			</v:userDefs>
			<v:textBlock v:margins="rect(4,4,4,4)"/>
			<v:textRect cx="19.125" cy="210.125" width="38.25" height="20"/>
			<g id="shadow31-85" v:groupContext="shadow" v:shadowOffsetX="0.345598" v:shadowOffsetY="-1.97279" v:shadowType="1"
					transform="matrix(1,0,0,1,0.345598,1.97279)" class="st1">
				<rect x="0" y="200.125" width="38.25" height="20" class="st2"/>
			</g>
			<rect x="0" y="200.125" width="38.25" height="20" class="st3"/>
			<text x="5.52" y="212.83" class="st9" v:langID="1033"><v:paragraph v:horizAlign="1"/><v:tabList/>Mem N</text>		</g>
		<g id="shape32-90" v:mID="32" v:groupContext="shape" transform="translate(133.129,-77.3478)">
			<title>Sheet.32</title>
			<desc>...</desc>
			<v:textBlock v:margins="rect(4,4,4,4)"/>
			<v:textRect cx="76" cy="217.875" width="152" height="4.5"/>
			<rect x="0" y="215.625" width="152" height="4.5" class="st11"/>
			<text x="64.64" y="226.88" class="st12" v:langID="1033"><v:paragraph v:horizAlign="1"/><v:tabList/>...</text>		</g>
		<g id="shape34-93" v:mID="34" v:groupContext="shape" v:layerMember="1" transform="translate(273.029,-79.0478)">
			<title>Or gate</title>
			<desc>OR</desc>
			<v:custProps>
				<v:cp v:nameU="Cost" v:lbl="Cost" v:type="7" v:format="@" v:langID="1033"/>
				<v:cp v:nameU="Duration" v:lbl="Duration" v:type="2" v:langID="1033"/>
				<v:cp v:nameU="Resources" v:lbl="Resources" v:langID="1033"/>
			</v:custProps>
			<v:userDefs>
				<v:ud v:nameU="visVersion" v:val="VT0(15):26"/>
			</v:userDefs>
			<v:textBlock v:margins="rect(2,2,2,2)"/>
			<v:textRect cx="19.125" cy="204.825" width="38.25" height="30.6"/>
			<g id="shadow34-94" v:groupContext="shadow" v:shadowOffsetX="0.345598" v:shadowOffsetY="-1.97279" v:shadowType="1"
					transform="matrix(1,0,0,1,0.345598,1.97279)" class="st1">
				<path d="M16.57 189.53 A31.4421 31.4421 0 0 1 38.25 204.83 A29.2071 29.2071 0 0 1 16.57 220.13 L0 220.13 A38.3138
							 38.3138 -180 0 0 0 189.53 L16.57 189.53 Z" class="st2"/>
			</g>
			<path d="M16.57 189.53 A31.4421 31.4421 0 0 1 38.25 204.83 A29.2071 29.2071 0 0 1 16.57 220.13 L0 220.13 A38.3138 38.3138
						 -180 0 0 0 189.53 L16.57 189.53 Z" class="st13"/>
			<text x="14.3" y="207.23" class="st14" v:langID="1033"><v:paragraph v:horizAlign="1"/><v:tabList/>OR</text>		</g>
		<g id="shape35-99" v:mID="35" v:groupContext="shape" v:layerMember="0" transform="translate(252.217,-125.098)">
			<title>Dynamic connector.35</title>
			<path d="M0 220.13 L11.44 220.13 L11.44 250.26 L16.95 250.26" class="st15"/>
		</g>
		<g id="shape36-105" v:mID="36" v:groupContext="shape" v:layerMember="0" transform="translate(252.217,-85.6578)">
			<title>Dynamic connector.36</title>
			<path d="M0 211.43 L6.75 211.43 L6.75 210.82 L16.95 210.82" class="st15"/>
		</g>
		<g id="shape37-110" v:mID="37" v:groupContext="shape" v:layerMember="0" transform="translate(252.217,-50.3478)">
			<title>Dynamic connector.37</title>
			<path d="M0 220.13 L12.19 220.13 L12.19 175.51 L16.95 175.51" class="st15"/>
		</g>
		<g id="shape38-115" v:mID="38" v:groupContext="shape" v:layerMember="0" transform="translate(311.279,-94.3478)">
			<title>Dynamic connector.38</title>
			<path d="M0 220.13 L6.75 220.13 L6.75 161.15 L-177.47 161.15 A3 3 -180 1 0 -183.47 161.15 L-191.25 161.15 L-191.25 165.13
						 L-197.71 165.13" class="st15"/>
		</g>
		<g id="shape39-120" v:mID="39" v:groupContext="shape" v:layerMember="0" transform="translate(145.229,-85.7853)">
			<title>Dynamic connector.39</title>
			<path d="M0 220.13 L10.8 220.13 L10.8 180.81 L15.57 180.81" class="st6"/>
		</g>
		<g id="shape40-125" v:mID="40" v:groupContext="shape" v:layerMember="0" transform="translate(145.229,-81.0666)">
			<title>Dynamic connector.40</title>
			<path d="M0 215.41 L10.8 215.41 L10.8 206.84 L15.57 206.84" class="st6"/>
		</g>
		<g id="shape41-130" v:mID="41" v:groupContext="shape" v:layerMember="0" transform="translate(145.229,-85.7853)">
			<title>Dynamic connector.41</title>
			<path d="M0 220.13 L10.8 220.13 L10.8 255.56 L15.57 255.56" class="st6"/>
		</g>
		<g id="shape42-135" v:mID="42" v:groupContext="shape" v:layerMember="0" transform="translate(54.7794,-95.3478)">
			<title>Dynamic connector.42</title>
			<path d="M9 211.13 L9 202.13 L9 204.09" class="st6"/>
		</g>
		<g id="shape45-140" v:mID="45" v:groupContext="shape" v:layerMember="0" transform="translate(54.7794,-104.348)">
			<title>Dynamic connector.45</title>
			<path d="M9 220.13 L9 204.67" class="st6"/>
		</g>
		<g id="shape46-145" v:mID="46" v:groupContext="shape" v:layerMember="0" transform="translate(201.029,-116.098)">
			<title>Dynamic connector.46</title>
			<path d="M5.06 211.13 L5.9 211.13" class="st6"/>
		</g>
		<g id="shape47-150" v:mID="47" v:groupContext="shape" v:layerMember="0" transform="translate(201.029,-85.3478)">
			<title>Dynamic connector.47</title>
			<path d="M5.06 211.13 L5.9 211.13" class="st6"/>
		</g>
		<g id="shape48-155" v:mID="48" v:groupContext="shape" v:layerMember="0" transform="translate(201.029,-41.3478)">
			<title>Dynamic connector.48</title>
			<path d="M5.06 211.13 L5.9 211.13" class="st6"/>
		</g>
	</g>
</svg>
