<?xml version="1.0" encoding="UTF-8" standalone="no"?>
<!DOCTYPE svg PUBLIC "-//W3C//DTD SVG 1.1//EN" "http://www.w3.org/Graphics/SVG/1.1/DTD/svg11.dtd">
<!-- Generated by Microsoft Visio, SVG Export i3.svg Page-1 -->
<svg xmlns="http://www.w3.org/2000/svg" xmlns:xlink="http://www.w3.org/1999/xlink" xmlns:ev="http://www.w3.org/2001/xml-events"
		xmlns:v="http://schemas.microsoft.com/visio/2003/SVGExtensions/" width="4.77987in" height="3.50208in"
		viewBox="0 0 344.15 252.15" xml:space="preserve" color-interpolation-filters="sRGB" class="st22">
	<v:documentProperties v:langID="1033" v:viewMarkup="false">
		<v:userDefs>
			<v:ud v:nameU="msvSubprocessMaster" v:prompt="" v:val="VT4(Rectangle)"/>
			<v:ud v:nameU="msvNoAutoConnect" v:val="VT0(1):26"/>
		</v:userDefs>
	</v:documentProperties>

	<style type="text/css">
	<![CDATA[
		.st1 {visibility:visible}
		.st2 {fill:#5b9bd5;fill-opacity:0.22;filter:url(#filter_2);stroke:#5b9bd5;stroke-opacity:0.22}
		.st3 {fill:#5b9bd5;stroke:#c7c8c8;stroke-width:0.25}
		.st4 {fill:#feffff;font-family:Calibri;font-size:0.833336em}
		.st5 {font-size:1em}
		.st6 {marker-end:url(#mrkr4-19);stroke:#5b9bd5;stroke-linecap:round;stroke-linejoin:round;stroke-width:1}
		.st7 {fill:#5b9bd5;fill-opacity:1;stroke:#5b9bd5;stroke-opacity:1;stroke-width:0.28409090909091}
		.st8 {fill:#ff0000;stroke:#c7c8c8;stroke-width:0.25}
		.st9 {fill:#feffff;font-family:Calibri;font-size:0.75em}
		.st10 {fill:#ed7d31;stroke:#c7c8c8;stroke-width:0.25}
		.st11 {fill:none;stroke:none;stroke-width:0.25}
		.st12 {fill:#5b9bd5;font-family:Calibri;font-size:2.50001em}
		.st13 {fill:#5b9bd5;stroke:#c8c8c8;stroke-width:0.25}
		.st14 {fill:#feffff;font-family:Calibri;font-size:0.666664em}
		.st15 {marker-end:url(#mrkr4-104);stroke:#ed7d31;stroke-linecap:round;stroke-linejoin:round;stroke-width:1}
		.st16 {fill:#ed7d31;fill-opacity:1;stroke:#ed7d31;stroke-opacity:1;stroke-width:0.28409090909091}
		.st17 {fill:#000000;font-family:Calibri;font-size:0.75em}
		.st18 {fill:#000000;font-family:Calibri;font-size:0.666664em}
		.st19 {fill:#c55a11;stroke:#c7c8c8;stroke-width:0.25}
		.st20 {marker-end:url(#mrkr4-197);stroke:#c55a11;stroke-linecap:round;stroke-linejoin:round;stroke-width:1}
		.st21 {fill:#c55a11;fill-opacity:1;stroke:#c55a11;stroke-opacity:1;stroke-width:0.28409090909091}
		.st22 {fill:none;fill-rule:evenodd;font-size:12px;overflow:visible;stroke-linecap:square;stroke-miterlimit:3}
	]]>
	</style>

	<defs id="Markers">
		<g id="lend4">
			<path d="M 2 1 L 0 0 L 2 -1 L 2 1 " style="stroke:none"/>
		</g>
		<marker id="mrkr4-19" class="st7" v:arrowType="4" v:arrowSize="2" v:setback="7.04" refX="-7.04" orient="auto"
				markerUnits="strokeWidth" overflow="visible">
			<use xlink:href="#lend4" transform="scale(-3.52,-3.52) "/>
		</marker>
		<marker id="mrkr4-104" class="st16" v:arrowType="4" v:arrowSize="2" v:setback="7.04" refX="-7.04" orient="auto"
				markerUnits="strokeWidth" overflow="visible">
			<use xlink:href="#lend4" transform="scale(-3.52,-3.52) "/>
		</marker>
		<marker id="mrkr4-197" class="st21" v:arrowType="4" v:arrowSize="2" v:setback="7.04" refX="-7.04" orient="auto"
				markerUnits="strokeWidth" overflow="visible">
			<use xlink:href="#lend4" transform="scale(-3.52,-3.52) "/>
		</marker>
	</defs>
	<defs id="Filters">
		<filter id="filter_2">
			<feGaussianBlur stdDeviation="2"/>
		</filter>
	</defs>
	<g v:mID="0" v:index="1" v:groupContext="foregroundPage">
		<v:userDefs>
			<v:ud v:nameU="msvThemeOrder" v:val="VT0(0):26"/>
		</v:userDefs>
		<title>Page-1</title>
		<v:pageProperties v:drawingScale="1" v:pageScale="1" v:drawingUnits="0" v:shadowOffsetX="9" v:shadowOffsetY="-9"/>
		<v:layer v:name="Connector" v:index="0"/>
		<v:layer v:name="Flowchart" v:index="1"/>
		<g id="shape1-1" v:mID="1" v:groupContext="shape" transform="translate(21.0294,-150.196)">
			<title>Rectangle</title>
			<desc>32 Bit Processor</desc>
			<v:userDefs>
				<v:ud v:nameU="visVersion" v:val="VT0(15):26"/>
			</v:userDefs>
			<v:textBlock v:margins="rect(4,4,4,4)"/>
			<v:textRect cx="42.75" cy="229.65" width="85.5" height="45"/>
			<g id="shadow1-2" v:groupContext="shadow" v:shadowOffsetX="0.345598" v:shadowOffsetY="-1.97279" v:shadowType="1"
					transform="matrix(1,0,0,1,0.345598,1.97279)" class="st1">
				<rect x="0" y="207.15" width="85.5" height="45" class="st2"/>
			</g>
			<rect x="0" y="207.15" width="85.5" height="45" class="st3"/>
			<text x="10.02" y="232.65" class="st4" v:langID="1033"><v:paragraph v:horizAlign="1"/><v:tabList/>32 Bit Processor</text>		</g>
		<g id="shape3-7" v:mID="3" v:groupContext="shape" transform="translate(180.329,-194.348)">
			<title>Rounded Rectangle</title>
			<desc>Program memory</desc>
			<v:userDefs>
				<v:ud v:nameU="CTypeTopLeftSnip" v:prompt="" v:val="VT0(0):5"/>
				<v:ud v:nameU="CTypeTopRightSnip" v:prompt="" v:val="VT0(0):5"/>
				<v:ud v:nameU="CTypeBotLeftSnip" v:prompt="" v:val="VT0(0):5"/>
				<v:ud v:nameU="CTypeBotRightSnip" v:prompt="" v:val="VT0(0):5"/>
				<v:ud v:nameU="CornerLockHoriz" v:prompt="" v:val="VT0(1):5"/>
				<v:ud v:nameU="CornerLockVert" v:prompt="" v:val="VT0(1):5"/>
				<v:ud v:nameU="CornerLockDiag" v:prompt="" v:val="VT0(0):5"/>
				<v:ud v:nameU="TopLeftOffset" v:prompt="" v:val="VT0(0.15):1"/>
				<v:ud v:nameU="TopRightOffset" v:prompt="" v:val="VT0(0.15):1"/>
				<v:ud v:nameU="BotLeftOffset" v:prompt="" v:val="VT0(0.15):1"/>
				<v:ud v:nameU="BotRightOffset" v:prompt="" v:val="VT0(0.15):1"/>
				<v:ud v:nameU="visVersion" v:prompt="" v:val="VT0(15):26"/>
				<v:ud v:nameU="TopLeftOffset" v:prompt="" v:val="VT0(0.080000000000001):1"/>
				<v:ud v:nameU="TopRightOffset" v:prompt="" v:val="VT0(0.080000000000001):1"/>
				<v:ud v:nameU="BotLeftOffset" v:prompt="" v:val="VT0(0.080000000000001):1"/>
				<v:ud v:nameU="BotRightOffset" v:prompt="" v:val="VT0(0.080000000000001):1"/>
			</v:userDefs>
			<v:textBlock v:margins="rect(4,4,4,4)"/>
			<v:textRect cx="28.8" cy="232.95" width="57.61" height="38.4"/>
			<g id="shadow3-8" v:groupContext="shadow" v:shadowOffsetX="0.345598" v:shadowOffsetY="-1.97279" v:shadowType="1"
					transform="matrix(1,0,0,1,0.345598,1.97279)" class="st1">
				<path d="M5.76 252.15 L51.84 252.15 A5.75991 5.75991 -180 0 0 57.6 246.39 L57.6 219.51 A5.75991 5.75991 -180 0 0
							 51.84 213.75 L5.76 213.75 A5.75991 5.75991 -180 0 0 0 219.51 L0 246.39 A5.75991 5.75991 -180 0 0 5.76
							 252.15 Z" class="st2"/>
			</g>
			<path d="M5.76 252.15 L51.84 252.15 A5.75991 5.75991 -180 0 0 57.6 246.39 L57.6 219.51 A5.75991 5.75991 -180 0 0 51.84
						 213.75 L5.76 213.75 A5.75991 5.75991 -180 0 0 0 219.51 L0 246.39 A5.75991 5.75991 -180 0 0 5.76 252.15 Z"
					class="st3"/>
			<text x="11.35" y="229.95" class="st4" v:langID="1033"><v:paragraph v:horizAlign="1"/><v:tabList/>Program <tspan
						x="11.68" dy="1.2em" class="st5">memory</tspan></text>		</g>
		<g id="shape5-14" v:mID="5" v:groupContext="shape" v:layerMember="0" transform="translate(106.529,-172.696)">
			<title>Dynamic connector</title>
			<path d="M0 252.15 L24.28 252.15 L24.28 211.3 L66.76 211.3" class="st6"/>
		</g>
		<g id="shape8-20" v:mID="8" v:groupContext="shape" v:layerMember="0" transform="translate(180.329,-213.548)">
			<title>Dynamic connector.8</title>
			<path d="M0 252.15 L-49.52 252.15 L-49.52 293 L-66.76 293" class="st6"/>
		</g>
		<g id="shape9-25" v:mID="9" v:groupContext="shape" transform="translate(44.6544,-89.4456)">
			<title>Octagon</title>
			<desc>50 MHz Timer</desc>
			<v:userDefs>
				<v:ud v:nameU="visVersion" v:val="VT0(15):26"/>
			</v:userDefs>
			<v:textBlock v:margins="rect(4,4,4,4)"/>
			<v:textRect cx="19.125" cy="233.025" width="38.25" height="38.25"/>
			<g id="shadow9-26" v:groupContext="shadow" v:shadowOffsetX="0.345598" v:shadowOffsetY="-1.97279" v:shadowType="1"
					transform="matrix(1,0,0,1,0.345598,1.97279)" class="st1">
				<path d="M27.05 213.9 L11.2 213.9 L0 225.1 L0 240.95 L11.2 252.15 L27.05 252.15 L38.25 240.95 L38.25 225.1 L27.05
							 213.9 Z" class="st2"/>
			</g>
			<path d="M27.05 213.9 L11.2 213.9 L0 225.1 L0 240.95 L11.2 252.15 L27.05 252.15 L38.25 240.95 L38.25 225.1 L27.05 213.9
						 Z" class="st8"/>
			<text x="5.12" y="230.33" class="st9" v:langID="1033"><v:paragraph v:horizAlign="1"/><v:tabList/>50 MHz <tspan x="8.5"
						dy="1.2em" class="st5">Timer</tspan></text>		</g>
		<g id="shape10-32" v:mID="10" v:groupContext="shape" transform="translate(83.25,-47.8206)">
			<title>Circle</title>
			<desc>50 MHz clock</desc>
			<v:userDefs>
				<v:ud v:nameU="visVersion" v:val="VT0(15):26"/>
			</v:userDefs>
			<v:textBlock v:margins="rect(4,4,4,4)"/>
			<v:textRect cx="23.625" cy="228.525" width="41.35" height="35.4375"/>
			<g id="shadow10-33" v:groupContext="shadow" v:shadowOffsetX="0.345598" v:shadowOffsetY="-1.97279" v:shadowType="1"
					transform="matrix(1,0,0,1,0.345598,1.97279)" class="st1">
				<path d="M0 228.52 A23.625 23.625 0 1 1 47.25 228.52 A23.625 23.625 0 0 1 0 228.52 Z" class="st2"/>
			</g>
			<path d="M0 228.52 A23.625 23.625 0 1 1 47.25 228.52 A23.625 23.625 0 0 1 0 228.52 Z" class="st10"/>
			<text x="8.06" y="225.53" class="st4" v:langID="1033"><v:paragraph v:horizAlign="1"/><v:tabList/>50 MHz <tspan
						x="13.34" dy="1.2em" class="st5">clock</tspan></text>		</g>
		<g id="shape17-39" v:mID="17" v:groupContext="shape" v:layerMember="0" transform="translate(106.529,-172.696)">
			<title>Dynamic connector.17</title>
			<path d="M0 252.15 L23.4 252.15 L23.4 327.39 L31.66 327.39" class="st6"/>
		</g>
		<g id="shape20-44" v:mID="20" v:groupContext="shape" v:layerMember="0" transform="translate(145.229,-97.4592)">
			<title>Dynamic connector.20</title>
			<path d="M0 252.15 L-15.3 252.15 L-15.3 176.91 L-31.66 176.91" class="st6"/>
		</g>
		<g id="shape21-49" v:mID="21" v:groupContext="shape" transform="translate(145.229,-23.3478)">
			<title>Frame</title>
			<v:userDefs>
				<v:ud v:nameU="visVersion" v:prompt="" v:val="VT0(15):26"/>
			</v:userDefs>
			<g id="shadow21-50" v:groupContext="shadow" v:shadowOffsetX="0.345598" v:shadowOffsetY="-1.97279" v:shadowType="1"
					transform="matrix(1,0,0,1,0.345598,1.97279)" class="st1">
				<path d="M0 252.15 L127.8 252.15 L127.8 103.93 L0 103.93 L0 252.15 ZM5.17 246.97 L122.62 246.97 L122.62 109.1 L5.17
							 109.1 L5.17 246.97 Z" class="st2"/>
			</g>
			<path d="M0 252.15 L127.8 252.15 L127.8 103.93 L0 103.93 L0 252.15 ZM5.17 246.97 L122.62 246.97 L122.62 109.1 L5.17 109.1
						 L5.17 246.97 Z" class="st3"/>
		</g>
		<g id="shape24-54" v:mID="24" v:groupContext="shape" transform="translate(167.842,-138.446)">
			<title>Rectangle.24</title>
			<desc>Circle 1</desc>
			<v:userDefs>
				<v:ud v:nameU="visVersion" v:val="VT0(15):26"/>
			</v:userDefs>
			<v:textBlock v:margins="rect(4,4,4,4)"/>
			<v:textRect cx="19.125" cy="242.15" width="38.25" height="20"/>
			<g id="shadow24-55" v:groupContext="shadow" v:shadowOffsetX="0.345598" v:shadowOffsetY="-1.97279" v:shadowType="1"
					transform="matrix(1,0,0,1,0.345598,1.97279)" class="st1">
				<rect x="0" y="232.15" width="38.25" height="20" class="st2"/>
			</g>
			<rect x="0" y="232.15" width="38.25" height="20" class="st3"/>
			<text x="5.65" y="244.85" class="st9" v:langID="1033"><v:paragraph v:horizAlign="1"/><v:tabList/>Circle 1</text>		</g>
		<g id="shape25-60" v:mID="25" v:groupContext="shape" transform="translate(213.967,-138.446)">
			<title>Rectangle.25</title>
			<desc>Mem 1</desc>
			<v:userDefs>
				<v:ud v:nameU="visVersion" v:val="VT0(15):26"/>
			</v:userDefs>
			<v:textBlock v:margins="rect(4,4,4,4)"/>
			<v:textRect cx="19.125" cy="242.15" width="38.25" height="20"/>
			<g id="shadow25-61" v:groupContext="shadow" v:shadowOffsetX="0.345598" v:shadowOffsetY="-1.97279" v:shadowType="1"
					transform="matrix(1,0,0,1,0.345598,1.97279)" class="st1">
				<rect x="0" y="232.15" width="38.25" height="20" class="st2"/>
			</g>
			<rect x="0" y="232.15" width="38.25" height="20" class="st3"/>
			<text x="6.15" y="244.85" class="st9" v:langID="1033"><v:paragraph v:horizAlign="1"/><v:tabList/>Mem 1</text>		</g>
		<g id="shape28-66" v:mID="28" v:groupContext="shape" transform="translate(167.842,-107.696)">
			<title>Rectangle.28</title>
			<desc>Circle 2</desc>
			<v:userDefs>
				<v:ud v:nameU="visVersion" v:val="VT0(15):26"/>
			</v:userDefs>
			<v:textBlock v:margins="rect(4,4,4,4)"/>
			<v:textRect cx="19.125" cy="242.15" width="38.25" height="20"/>
			<g id="shadow28-67" v:groupContext="shadow" v:shadowOffsetX="0.345598" v:shadowOffsetY="-1.97279" v:shadowType="1"
					transform="matrix(1,0,0,1,0.345598,1.97279)" class="st1">
				<rect x="0" y="232.15" width="38.25" height="20" class="st2"/>
			</g>
			<rect x="0" y="232.15" width="38.25" height="20" class="st3"/>
			<text x="5.65" y="244.85" class="st9" v:langID="1033"><v:paragraph v:horizAlign="1"/><v:tabList/>Circle 2</text>		</g>
		<g id="shape29-72" v:mID="29" v:groupContext="shape" transform="translate(213.967,-107.696)">
			<title>Rectangle.29</title>
			<desc>Mem 2</desc>
			<v:userDefs>
				<v:ud v:nameU="visVersion" v:val="VT0(15):26"/>
			</v:userDefs>
			<v:textBlock v:margins="rect(4,4,4,4)"/>
			<v:textRect cx="19.125" cy="242.15" width="38.25" height="20"/>
			<g id="shadow29-73" v:groupContext="shadow" v:shadowOffsetX="0.345598" v:shadowOffsetY="-1.97279" v:shadowType="1"
					transform="matrix(1,0,0,1,0.345598,1.97279)" class="st1">
				<rect x="0" y="232.15" width="38.25" height="20" class="st2"/>
			</g>
			<rect x="0" y="232.15" width="38.25" height="20" class="st3"/>
			<text x="6.15" y="244.85" class="st9" v:langID="1033"><v:paragraph v:horizAlign="1"/><v:tabList/>Mem 2</text>		</g>
		<g id="shape30-78" v:mID="30" v:groupContext="shape" transform="translate(167.842,-63.6956)">
			<title>Rectangle.30</title>
			<desc>Circle N</desc>
			<v:userDefs>
				<v:ud v:nameU="visVersion" v:val="VT0(15):26"/>
			</v:userDefs>
			<v:textBlock v:margins="rect(4,4,4,4)"/>
			<v:textRect cx="19.125" cy="242.15" width="38.25" height="20"/>
			<g id="shadow30-79" v:groupContext="shadow" v:shadowOffsetX="0.345598" v:shadowOffsetY="-1.97279" v:shadowType="1"
					transform="matrix(1,0,0,1,0.345598,1.97279)" class="st1">
				<rect x="0" y="232.15" width="38.25" height="20" class="st2"/>
			</g>
			<rect x="0" y="232.15" width="38.25" height="20" class="st3"/>
			<text x="5.03" y="244.85" class="st9" v:langID="1033"><v:paragraph v:horizAlign="1"/><v:tabList/>Circle N</text>		</g>
		<g id="shape31-84" v:mID="31" v:groupContext="shape" transform="translate(213.967,-63.6956)">
			<title>Rectangle.31</title>
			<desc>Mem N</desc>
			<v:userDefs>
				<v:ud v:nameU="visVersion" v:val="VT0(15):26"/>
			</v:userDefs>
			<v:textBlock v:margins="rect(4,4,4,4)"/>
			<v:textRect cx="19.125" cy="242.15" width="38.25" height="20"/>
			<g id="shadow31-85" v:groupContext="shadow" v:shadowOffsetX="0.345598" v:shadowOffsetY="-1.97279" v:shadowType="1"
					transform="matrix(1,0,0,1,0.345598,1.97279)" class="st1">
				<rect x="0" y="232.15" width="38.25" height="20" class="st2"/>
			</g>
			<rect x="0" y="232.15" width="38.25" height="20" class="st3"/>
			<text x="5.52" y="244.85" class="st9" v:langID="1033"><v:paragraph v:horizAlign="1"/><v:tabList/>Mem N</text>		</g>
		<g id="shape32-90" v:mID="32" v:groupContext="shape" transform="translate(133.129,-100.696)">
			<title>Sheet.32</title>
			<desc>...</desc>
			<v:textBlock v:margins="rect(4,4,4,4)"/>
			<v:textRect cx="76" cy="249.9" width="152" height="4.5"/>
			<rect x="0" y="247.65" width="152" height="4.5" class="st11"/>
			<text x="64.64" y="258.9" class="st12" v:langID="1033"><v:paragraph v:horizAlign="1"/><v:tabList/>...</text>		</g>
		<g id="shape34-93" v:mID="34" v:groupContext="shape" v:layerMember="1" transform="translate(273.029,-102.396)">
			<title>Or gate</title>
			<desc>OR</desc>
			<v:custProps>
				<v:cp v:nameU="Cost" v:lbl="Cost" v:type="7" v:format="@" v:langID="1033"/>
				<v:cp v:nameU="Duration" v:lbl="Duration" v:type="2" v:langID="1033"/>
				<v:cp v:nameU="Resources" v:lbl="Resources" v:langID="1033"/>
			</v:custProps>
			<v:userDefs>
				<v:ud v:nameU="visVersion" v:val="VT0(15):26"/>
			</v:userDefs>
			<v:textBlock v:margins="rect(2,2,2,2)"/>
			<v:textRect cx="19.125" cy="236.85" width="38.25" height="30.6"/>
			<g id="shadow34-94" v:groupContext="shadow" v:shadowOffsetX="0.345598" v:shadowOffsetY="-1.97279" v:shadowType="1"
					transform="matrix(1,0,0,1,0.345598,1.97279)" class="st1">
				<path d="M16.57 221.55 A31.4421 31.4421 0 0 1 38.25 236.85 A29.2071 29.2071 0 0 1 16.57 252.15 L0 252.15 A38.3138
							 38.3138 -180 0 0 0 221.55 L16.57 221.55 Z" class="st2"/>
			</g>
			<path d="M16.57 221.55 A31.4421 31.4421 0 0 1 38.25 236.85 A29.2071 29.2071 0 0 1 16.57 252.15 L0 252.15 A38.3138 38.3138
						 -180 0 0 0 221.55 L16.57 221.55 Z" class="st13"/>
			<text x="14.3" y="239.25" class="st14" v:langID="1033"><v:paragraph v:horizAlign="1"/><v:tabList/>OR</text>		</g>
		<g id="shape35-99" v:mID="35" v:groupContext="shape" v:layerMember="0" transform="translate(252.217,-148.446)">
			<title>Dynamic connector.35</title>
			<path d="M0 252.15 L11.44 252.15 L11.44 282.28 L16.95 282.28" class="st15"/>
		</g>
		<g id="shape36-105" v:mID="36" v:groupContext="shape" v:layerMember="0" transform="translate(252.217,-109.006)">
			<title>Dynamic connector.36</title>
			<path d="M0 243.46 L6.75 243.46 L6.75 242.84 L16.95 242.84" class="st15"/>
		</g>
		<g id="shape37-110" v:mID="37" v:groupContext="shape" v:layerMember="0" transform="translate(252.217,-73.6956)">
			<title>Dynamic connector.37</title>
			<path d="M0 252.15 L12.19 252.15 L12.19 207.53 L16.95 207.53" class="st15"/>
		</g>
		<g id="shape38-115" v:mID="38" v:groupContext="shape" v:layerMember="0" transform="translate(311.279,-117.696)">
			<title>Dynamic connector.38</title>
			<path d="M0 252.15 L6.75 252.15 L6.75 197.15 L-197.71 197.15" class="st15"/>
		</g>
		<g id="shape39-120" v:mID="39" v:groupContext="shape" v:layerMember="0" transform="translate(145.229,-97.4592)">
			<title>Dynamic connector.39</title>
			<path d="M0 252.15 L10.8 252.15 L10.8 201.16 L15.57 201.16" class="st6"/>
		</g>
		<g id="shape40-125" v:mID="40" v:groupContext="shape" v:layerMember="0" transform="translate(145.229,-97.4592)">
			<title>Dynamic connector.40</title>
			<path d="M0 252.15 L10.8 252.15 L10.8 231.91 L15.57 231.91" class="st6"/>
		</g>
		<g id="shape41-130" v:mID="41" v:groupContext="shape" v:layerMember="0" transform="translate(145.229,-97.4592)">
			<title>Dynamic connector.41</title>
			<path d="M0 252.15 L10.8 252.15 L10.8 275.91 L15.57 275.91" class="st6"/>
		</g>
		<g id="shape42-135" v:mID="42" v:groupContext="shape" v:layerMember="0" transform="translate(54.7794,-118.696)">
			<title>Dynamic connector.42</title>
			<path d="M9 243.15 L9 234.15 L9 236.11" class="st6"/>
		</g>
		<g id="shape45-140" v:mID="45" v:groupContext="shape" v:layerMember="0" transform="translate(54.7794,-127.696)">
			<title>Dynamic connector.45</title>
			<path d="M9 252.15 L9 236.69" class="st6"/>
		</g>
		<g id="shape46-145" v:mID="46" v:groupContext="shape" v:layerMember="0" transform="translate(201.029,-139.446)">
			<title>Dynamic connector.46</title>
			<path d="M5.06 243.15 L5.9 243.15" class="st6"/>
		</g>
		<g id="shape47-150" v:mID="47" v:groupContext="shape" v:layerMember="0" transform="translate(201.029,-108.696)">
			<title>Dynamic connector.47</title>
			<path d="M5.06 243.15 L5.9 243.15" class="st6"/>
		</g>
		<g id="shape48-155" v:mID="48" v:groupContext="shape" v:layerMember="0" transform="translate(201.029,-64.6956)">
			<title>Dynamic connector.48</title>
			<path d="M5.06 243.15 L5.9 243.15" class="st6"/>
		</g>
		<g id="shape49-160" v:mID="49" v:groupContext="shape" v:layerMember="0" transform="translate(200.129,-171.571)">
			<title>Dynamic connector.49</title>
			<path d="M9 252.15 L9 236.41" class="st6"/>
		</g>
		<g id="shape50-165" v:mID="50" v:groupContext="shape" v:layerMember="0" transform="translate(200.129,-194.348)">
			<title>Dynamic connector.50</title>
			<path d="M9 252.15 L9 267.89" class="st6"/>
		</g>
		<g id="shape51-170" v:mID="51" v:groupContext="shape" transform="translate(67.4294,-212.748)">
			<title>Sheet.51</title>
			<desc>Main port</desc>
			<v:textBlock v:margins="rect(4,4,4,4)"/>
			<v:textRect cx="76" cy="242.15" width="152.01" height="20"/>
			<rect x="0" y="232.15" width="152" height="20" class="st11"/>
			<text x="57.77" y="244.85" class="st17" v:langID="1033"><v:paragraph v:horizAlign="1"/><v:tabList/>Main port</text>		</g>
		<g id="shape53-173" v:mID="53" v:groupContext="shape" transform="translate(173.9,-176.348)">
			<title>Sheet.53</title>
			<desc>Coprocessor Port</desc>
			<v:textBlock v:margins="rect(4,4,4,4)"/>
			<v:textRect cx="76" cy="242.15" width="152" height="20"/>
			<rect x="0" y="232.15" width="152" height="20" class="st11"/>
			<text x="44.53" y="244.85" class="st17" v:langID="1033"><v:paragraph v:horizAlign="1"/><v:tabList/>Coprocessor Port</text>		</g>
		<g id="shape57-176" v:mID="57" v:groupContext="shape" transform="translate(73.5956,-122.788)">
			<title>Sheet.57</title>
			<desc>Write stack address</desc>
			<v:textBlock v:margins="rect(4,4,4,4)"/>
			<v:textRect cx="37.4522" cy="247.222" width="74.91" height="9.85584"/>
			<rect x="0" y="242.294" width="74.9044" height="9.85584" class="st11"/>
			<text x="19.02" y="244.82" class="st18" v:langID="1033"><v:paragraph v:horizAlign="1"/><v:tabList/>Write stack <v:newlineChar/><tspan
						x="24.82" dy="1.2em" class="st5">address</tspan></text>		</g>
		<g id="shape60-180" v:mID="60" v:groupContext="shape" transform="translate(282.375,-135.796)">
			<title>Sheet.60</title>
			<desc>read data</desc>
			<v:textBlock v:margins="rect(4,4,4,4)"/>
			<v:textRect cx="19.125" cy="242.15" width="38.25" height="20"/>
			<rect x="0" y="232.15" width="38.25" height="20" class="st11"/>
			<text x="11.72" y="239.75" class="st18" v:langID="1033"><v:paragraph v:horizAlign="1"/><v:tabList/>read <tspan
						x="11.85" dy="1.2em" class="st5">data</tspan></text>		</g>
		<g id="shape62-184" v:mID="62" v:groupContext="shape" transform="translate(193.829,-27.8478)">
			<title>Circle.62</title>
			<desc>100 MHz clock</desc>
			<v:userDefs>
				<v:ud v:nameU="visVersion" v:val="VT0(15):26"/>
			</v:userDefs>
			<v:textBlock v:margins="rect(4,4,4,4)"/>
			<v:textRect cx="15.3" cy="236.85" width="26.78" height="22.95"/>
			<g id="shadow62-185" v:groupContext="shadow" v:shadowOffsetX="0.345598" v:shadowOffsetY="-1.97279" v:shadowType="1"
					transform="matrix(1,0,0,1,0.345598,1.97279)" class="st1">
				<path d="M0 236.85 A15.3 15.3 0 0 1 30.6 236.85 A15.3 15.3 0 1 1 0 236.85 Z" class="st2"/>
			</g>
			<path d="M0 236.85 A15.3 15.3 0 0 1 30.6 236.85 A15.3 15.3 0 1 1 0 236.85 Z" class="st19"/>
			<text x="9.22" y="229.65" class="st14" v:langID="1033"><v:paragraph v:horizAlign="1"/><v:tabList/>100 <tspan x="7.81"
						dy="1.2em" class="st5">MHz </tspan><tspan x="7.07" dy="1.2em" class="st5">clock</tspan></text>		</g>
		<g id="shape65-192" v:mID="65" v:groupContext="shape" v:layerMember="0" transform="translate(199.398,-43.1478)">
			<title>Dynamic connector.65</title>
			<path d="M-5.57 252.15 L-12.43 252.15 L-12.43 238.64" class="st20"/>
		</g>
		<g id="shape66-198" v:mID="66" v:groupContext="shape" v:layerMember="0" transform="translate(177.967,-83.6956)">
			<title>Dynamic connector.66</title>
			<path d="M9 252.15 L9 235.19" class="st20"/>
		</g>
		<g id="shape67-203" v:mID="67" v:groupContext="shape" v:layerMember="0" transform="translate(177.967,-124.071)">
			<title>Dynamic connector.67</title>
			<path d="M9 248.52 L9 244.81" class="st20"/>
		</g>
		<g id="shape68-208" v:mID="68" v:groupContext="shape" v:layerMember="0" transform="translate(219.761,-43.1478)">
			<title>Dynamic connector.68</title>
			<path d="M4.67 252.15 L13.33 252.15 L13.33 238.64" class="st20"/>
		</g>
		<g id="shape69-213" v:mID="69" v:groupContext="shape" v:layerMember="0" transform="translate(224.092,-83.6956)">
			<title>Dynamic connector.69</title>
			<path d="M9 252.15 L9 235.19" class="st20"/>
		</g>
		<g id="shape70-218" v:mID="70" v:groupContext="shape" v:layerMember="0" transform="translate(224.092,-124.071)">
			<title>Dynamic connector.70</title>
			<path d="M9 248.52 L9 244.81" class="st20"/>
		</g>
	</g>
</svg>
