<?xml version="1.0" encoding="UTF-8" standalone="no"?>
<!-- Created with Inkscape (http://www.inkscape.org/) -->
<svg
   xmlns:svg="http://www.w3.org/2000/svg"
   xmlns="http://www.w3.org/2000/svg"
   version="1.0"
   width="956.69287"
   height="414.56693"
   id="svg2">
  <defs
     id="defs4" />
  <g
     transform="translate(-977.04996,151.8002)"
     id="layer1">
    <g
       transform="translate(35.433066,35.419298)"
       id="g3115">
      <path
         d="M 977.04996,191.92813 L 1862.8767,191.92813 L 1862.8767,-151.8002 L 977.04996,-151.8002 L 977.04996,191.92813 z"
         id="path2824"
         style="fill:#ffffff;fill-opacity:1;fill-rule:nonzero;stroke:none" />
      <path
         d="M 985.8872,182.61726 L 1853.6467,182.61726 L 1853.6467,-142.77812 L 985.8872,-142.77812 L 985.8872,182.61726 z"
         id="path2826"
         style="fill:#1f2569;fill-opacity:1;fill-rule:nonzero;stroke:none" />
      <path
         d="M 1725.0434,43.590716 C 1713.4106,26.782626 1690.1334,-5.5512936 1673.9723,-25.593924 C 1673.9723,-25.593924 1673.3138,26.782626 1674.6076,43.590716 C 1670.0792,43.590716 1665.5624,42.943806 1660.3756,43.590716 C 1662.9748,34.545536 1663.6217,-41.755104 1661.0341,-51.458744 C 1664.904,-51.458744 1670.7262,-50.811834 1674.6076,-51.458744 C 1686.8873,-34.650654 1712.1052,-1.0229236 1725.0434,16.432076 C 1725.0434,3.5054364 1725.6903,-37.238294 1724.3965,-51.458744 C 1729.5718,-50.811834 1733.4533,-50.164924 1738.6285,-51.458744 C 1736.6878,-39.825934 1735.394,31.957896 1738.6285,43.590716 C 1734.7471,42.943806 1728.9249,42.943806 1725.0434,43.590716"
         id="path2830"
         style="fill:#ffffff;fill-opacity:1;fill-rule:nonzero;stroke:none" />
      <path
         d="M 1520.7159,17.085826 C 1520.7159,39.069186 1502.6025,44.879816 1490.9697,44.879816 C 1482.5598,44.879816 1471.5739,41.009916 1464.4579,37.116906 C 1464.4579,30.012456 1465.1048,27.424816 1464.4579,20.308816 C 1468.3394,25.484096 1481.266,33.235456 1490.3227,33.235456 C 1499.3679,33.235456 1504.5432,28.071726 1505.1901,19.661906 C 1505.8486,8.0290964 1487.0882,-1.0276336 1478.6899,-6.8382736 C 1471.5739,-12.672004 1466.3871,-18.482634 1466.3871,-28.186274 C 1466.3871,-41.112914 1478.0315,-51.463464 1494.2042,-51.463464 C 1504.5432,-51.463464 1509.7185,-48.228914 1518.7636,-43.700544 C 1515.5407,-39.172184 1513.5999,-35.302274 1511.6592,-30.773914 C 1508.4247,-35.302274 1502.6025,-41.112914 1494.2042,-41.112914 C 1485.7944,-41.112914 1481.266,-35.302274 1481.266,-28.833184 C 1481.266,-23.011004 1489.0289,-17.835724 1501.944,-9.4374536 C 1512.953,-2.3214536 1520.7159,3.5007264 1520.7159,17.085826"
         id="path2834"
         style="fill:#ffffff;fill-opacity:1;fill-rule:nonzero;stroke:none" />
      <path
         d="M 1445.7057,43.590716 C 1439.2366,42.943806 1432.1321,42.943806 1425.663,43.590716 C 1422.417,37.780086 1400.4451,6.0930764 1397.2106,3.5054364 L 1395.9168,-5.5512936 C 1408.8434,-4.9043836 1417.9001,-10.726564 1417.9001,-24.300104 C 1417.9001,-35.297564 1408.208,-41.119754 1397.8575,-41.119754 C 1394.623,-41.119754 1392.0353,-41.119754 1389.4477,-41.119754 C 1388.8008,-20.418654 1389.4477,24.841896 1390.7415,43.590716 C 1384.9309,43.590716 1379.0971,42.943806 1373.2865,43.590716 C 1375.2272,28.076446 1375.2272,-35.297564 1373.2865,-51.458744 C 1389.4477,-50.164924 1385.5662,-51.458744 1399.7982,-51.458744 C 1413.3718,-51.458744 1432.7791,-46.930384 1432.7791,-26.240834 C 1432.7791,-9.4327436 1418.547,0.2708964 1411.431,0.2708964 C 1412.7249,0.9062564 1440.542,38.415436 1445.7057,43.590716"
         id="path2838"
         style="fill:#ffffff;fill-opacity:1;fill-rule:nonzero;stroke:none" />
      <path
         d="M 1243.312,31.953276 C 1242.6651,35.834736 1242.6651,40.351546 1242.6651,44.244556 C 1231.0323,42.950736 1203.8621,42.950736 1192.8762,44.244556 C 1194.17,31.953276 1194.17,-38.525184 1192.8762,-51.463364 C 1200.6275,-50.169544 1233.6084,-50.169544 1242.0182,-51.463364 C 1242.0182,-46.935004 1242.0182,-43.053544 1242.0182,-39.172094 C 1233.6084,-39.819004 1218.0941,-41.112814 1209.0374,-40.465904 C 1209.0374,-33.996814 1208.3905,-22.364004 1209.0374,-11.378094 C 1218.0941,-10.719634 1231.0323,-10.719634 1240.0775,-12.671914 C 1240.0775,-8.1435436 1240.0775,-4.2620936 1240.7244,-0.3806336 C 1229.7385,-1.6744536 1219.3879,-1.6744536 1209.0374,-1.0275436 C 1208.3905,6.0884564 1208.3905,26.778006 1208.3905,33.235546 C 1217.4472,33.235546 1233.6084,32.600186 1243.312,31.953276"
         id="path2842"
         style="fill:#ffffff;fill-opacity:1;fill-rule:nonzero;stroke:none" />
      <path
         d="M 1636.4596,-4.9055836 C 1636.4596,22.253056 1616.4169,45.530236 1589.9052,45.530236 C 1561.4412,45.530236 1542.6924,22.899966 1542.6924,-4.9055836 C 1542.6924,-28.829674 1562.7465,-51.459944 1589.2583,-51.459944 C 1616.4169,-51.459944 1636.4596,-28.829674 1636.4596,-4.9055836 z M 1620.2984,-4.2586736 C 1620.2984,-19.772944 1610.5832,-41.109394 1589.2583,-41.109394 C 1567.9103,-41.109394 1558.8535,-19.772944 1558.8535,-4.2586736 C 1558.8535,13.854786 1568.5572,35.179696 1589.9052,35.179696 C 1609.9363,35.179696 1620.2984,13.854786 1620.2984,-4.2586736"
         id="path2846"
         style="fill:#ffffff;fill-opacity:1;fill-rule:nonzero;stroke:none" />
      <path
         d="M 1348.7121,43.590716 C 1344.1837,42.943806 1335.7854,43.590716 1330.6102,43.590716 C 1329.3164,37.780086 1324.788,24.194986 1322.2004,16.432076 C 1309.9091,15.785166 1297.6294,15.785166 1286.6319,16.432076 C 1284.7027,23.548076 1280.1744,39.062346 1278.869,43.590716 C 1275.646,43.590716 1267.8831,43.590716 1264.0016,43.590716 C 1269.1769,33.887076 1295.6886,-39.179024 1298.2763,-50.811834 C 1304.0985,-50.164924 1308.6268,-50.164924 1313.7906,-50.811834 C 1317.0251,-37.885204 1344.1837,34.545536 1348.7121,43.590716 z M 1318.3189,4.7992564 C 1314.449,-6.8451036 1307.333,-26.240834 1304.0985,-35.297564 C 1300.8639,-26.240834 1295.0417,-7.4920136 1290.5134,4.7992564 C 1297.6294,6.0930764 1311.8614,5.4346164 1318.3189,4.7992564"
         id="path2850"
         style="fill:#ffffff;fill-opacity:1;fill-rule:nonzero;stroke:none" />
      <path
         d="M 1165.0695,-25.598544 C 1165.0695,-3.6151836 1143.7331,7.3822764 1124.9843,6.7353664 C 1124.3373,3.5008164 1124.3373,0.2662764 1123.6904,-2.3098136 C 1139.8516,-2.9567236 1150.2022,-10.072724 1150.2022,-24.304724 C 1150.2022,-35.290634 1140.4985,-43.700454 1128.2188,-43.700454 C 1127.5719,-43.700454 1123.032,-43.700454 1117.2213,-43.700454 C 1117.2213,-24.951634 1117.2213,25.484186 1118.5152,44.244556 C 1112.693,42.950736 1107.5177,42.950736 1101.6955,44.244556 L 1101.0486,44.244556 C 1102.354,34.540916 1103.6362,-42.406634 1101.0486,-53.404094 C 1117.8682,-52.110274 1115.2806,-53.404094 1129.5011,-53.404094 C 1144.38,-53.404094 1165.0695,-47.581914 1165.0695,-25.598544"
         id="path2854"
         style="fill:#ffffff;fill-opacity:1;fill-rule:nonzero;stroke:none" />
      <path
         d="M 1417.3341,91.976016 C 1283.6318,91.976016 1171.4393,112.49229 1081.7037,133.14718 L 1081.7037,131.5068 C 1092.886,126.88602 1227.6857,76.658126 1417.3225,76.600366 L 1417.311,76.600366 C 1606.9363,76.658126 1741.7245,126.88602 1752.9067,131.5068 C 1752.9183,131.5068 1752.9067,133.14718 1752.9067,133.14718 C 1663.2058,112.49229 1550.9786,91.976016 1417.2994,91.976016 L 1417.3341,91.976016"
         id="path2858"
         style="fill:#ffffff;fill-opacity:1;fill-rule:nonzero;stroke:none" />
    </g>
  </g>
</svg>
